G04 Layer_Color=8388736*
%FSLAX25Y25*%
%MOIN*%
G70*
G01*
G75*
%ADD10C,0.03937*%
%ADD47C,0.00787*%
%ADD54C,0.01000*%
%ADD66C,0.06299*%
%ADD74C,0.07087*%
%ADD80C,0.07874*%
%ADD107R,0.03150X0.08661*%
%ADD108R,0.12992X0.10236*%
%ADD109R,0.22047X0.13780*%
%ADD110R,0.04587X0.03987*%
%ADD111R,0.03987X0.04587*%
%ADD112R,0.01969X0.06890*%
%ADD113R,0.06890X0.01969*%
%ADD114R,0.06693X0.06693*%
%ADD115R,0.04331X0.04331*%
%ADD116R,0.04331X0.04724*%
%ADD117R,0.03937X0.02362*%
%ADD118R,0.11187X0.10387*%
%ADD119R,0.06787X0.06787*%
%ADD120R,0.07187X0.10787*%
%ADD121R,0.05787X0.05787*%
%ADD122R,0.05787X0.05787*%
%ADD123R,0.06787X0.06787*%
%ADD124R,0.07874X0.10236*%
%ADD125R,0.06693X0.11024*%
%ADD126R,0.03937X0.07087*%
%ADD127R,0.10236X0.07874*%
%ADD128R,0.06299X0.04724*%
%ADD129R,0.10630X0.07087*%
%ADD130R,0.08661X0.03150*%
%ADD131R,0.02362X0.07874*%
%ADD132R,0.04724X0.03543*%
%ADD133R,0.07480X0.06693*%
%ADD134R,0.02362X0.06102*%
%ADD135R,0.09449X0.09055*%
%ADD136R,0.11417X0.09055*%
%ADD137R,0.07874X0.02362*%
%ADD138R,0.05787X0.15276*%
%ADD139R,0.03937X0.01969*%
%ADD140R,0.01969X0.03937*%
%ADD141R,0.12992X0.12992*%
%ADD142R,0.05158X0.12598*%
%ADD143C,0.20472*%
%ADD144C,0.08661*%
%ADD145R,0.08661X0.08661*%
%ADD146C,0.09055*%
%ADD147C,0.17323*%
%ADD148C,0.10630*%
%ADD149C,0.10236*%
%ADD150C,0.06587*%
%ADD151R,0.06587X0.06587*%
%ADD152R,0.06587X0.06587*%
%ADD153C,0.13386*%
%ADD154C,0.04528*%
%ADD155C,0.04724*%
D10*
X174409Y362008D02*
D03*
X168110D02*
D03*
Y367914D02*
D03*
X174409D02*
D03*
D47*
X105512Y611898D02*
Y615834D01*
X106824Y614522D01*
X108136Y615834D01*
Y611898D01*
X110103D02*
X111415D01*
X112071Y612554D01*
Y613866D01*
X111415Y614522D01*
X110103D01*
X109448Y613866D01*
Y612554D01*
X110103Y611898D01*
X113383Y614522D02*
Y611898D01*
Y613210D01*
X114039Y613866D01*
X114695Y614522D01*
X115351D01*
X117319Y610586D02*
Y614522D01*
X119287D01*
X119943Y613866D01*
Y612554D01*
X119287Y611898D01*
X117319D01*
X121255Y615834D02*
Y611898D01*
Y613866D01*
X121911Y614522D01*
X123223D01*
X123879Y613866D01*
Y611898D01*
X127158D02*
X125847D01*
X125190Y612554D01*
Y613866D01*
X125847Y614522D01*
X127158D01*
X127814Y613866D01*
Y613210D01*
X125190D01*
X129126Y614522D02*
Y612554D01*
X129782Y611898D01*
X131750D01*
Y614522D01*
X133062Y611898D02*
X135030D01*
X135686Y612554D01*
X135030Y613210D01*
X133718D01*
X133062Y613866D01*
X133718Y614522D01*
X135686D01*
X140934Y615834D02*
Y611898D01*
X142901D01*
X143557Y612554D01*
Y613210D01*
X142901Y613866D01*
X140934D01*
X142901D01*
X143557Y614522D01*
Y615178D01*
X142901Y615834D01*
X140934D01*
X145525Y611898D02*
X146837D01*
X147493Y612554D01*
Y613866D01*
X146837Y614522D01*
X145525D01*
X144869Y613866D01*
Y612554D01*
X145525Y611898D01*
X149461Y614522D02*
X150773D01*
X151429Y613866D01*
Y611898D01*
X149461D01*
X148805Y612554D01*
X149461Y613210D01*
X151429D01*
X152741Y614522D02*
Y611898D01*
Y613210D01*
X153397Y613866D01*
X154053Y614522D01*
X154709D01*
X159300Y615834D02*
Y611898D01*
X157332D01*
X156676Y612554D01*
Y613866D01*
X157332Y614522D01*
X159300D01*
X164548D02*
X165860Y611898D01*
X167172Y614522D01*
X168484Y611898D02*
X169796D01*
X169140D01*
Y615834D01*
X168484Y615178D01*
X171763Y611898D02*
Y612554D01*
X172419D01*
Y611898D01*
X171763D01*
X175043Y615178D02*
X175699Y615834D01*
X177011D01*
X177667Y615178D01*
Y612554D01*
X177011Y611898D01*
X175699D01*
X175043Y612554D01*
Y615178D01*
X105512Y603973D02*
X106824D01*
X106168D01*
Y607909D01*
X105512Y607253D01*
X108792D02*
X109448Y607909D01*
X110759D01*
X111415Y607253D01*
Y606597D01*
X110759Y605941D01*
X111415Y605285D01*
Y604629D01*
X110759Y603973D01*
X109448D01*
X108792Y604629D01*
Y605285D01*
X109448Y605941D01*
X108792Y606597D01*
Y607253D01*
X109448Y605941D02*
X110759D01*
X112727Y603973D02*
X115351Y606597D01*
X116663Y607253D02*
X117319Y607909D01*
X118631D01*
X119287Y607253D01*
Y604629D01*
X118631Y603973D01*
X117319D01*
X116663Y604629D01*
Y607253D01*
X123223Y607909D02*
X120599D01*
Y605941D01*
X121911Y606597D01*
X122567D01*
X123223Y605941D01*
Y604629D01*
X122567Y603973D01*
X121255D01*
X120599Y604629D01*
X124535Y603973D02*
X127158Y606597D01*
X131094Y603973D02*
X128470D01*
X131094Y606597D01*
Y607253D01*
X130438Y607909D01*
X129126D01*
X128470Y607253D01*
X132406D02*
X133062Y607909D01*
X134374D01*
X135030Y607253D01*
Y604629D01*
X134374Y603973D01*
X133062D01*
X132406Y604629D01*
Y607253D01*
X136342Y603973D02*
X137654D01*
X136998D01*
Y607909D01*
X136342Y607253D01*
X142245Y607909D02*
X140934Y607253D01*
X139622Y605941D01*
Y604629D01*
X140278Y603973D01*
X141589D01*
X142245Y604629D01*
Y605285D01*
X141589Y605941D01*
X139622D01*
X105512Y601296D02*
Y597361D01*
X107480D01*
X108136Y598017D01*
Y598673D01*
X107480Y599329D01*
X105512D01*
X107480D01*
X108136Y599985D01*
Y600640D01*
X107480Y601296D01*
X105512D01*
X112071D02*
X109448D01*
Y597361D01*
X112071D01*
X109448Y599329D02*
X110759D01*
X113383Y597361D02*
Y601296D01*
X116007Y597361D01*
Y601296D01*
X117319D02*
X119943D01*
X118631D01*
Y597361D01*
X121255Y601296D02*
X122567D01*
X121911D01*
Y597361D01*
X121255D01*
X122567D01*
X131094D02*
X130438Y598017D01*
X129782Y597361D01*
X129126D01*
X128470Y598017D01*
Y598673D01*
X129126Y599329D01*
X128470Y599985D01*
Y600640D01*
X129126Y601296D01*
X129782D01*
X130438Y600640D01*
Y599985D01*
X129782Y599329D01*
X130438Y598673D01*
Y598017D01*
X131094Y599329D02*
X130438Y598673D01*
X129126Y599329D02*
X129782D01*
X136342Y601296D02*
Y597361D01*
Y599329D01*
X138966D01*
Y601296D01*
Y597361D01*
X142901Y601296D02*
X140278D01*
Y597361D01*
X142901D01*
X140278Y599329D02*
X141589D01*
X144213Y601296D02*
X145525D01*
X144869D01*
Y597361D01*
X144213D01*
X145525D01*
X150117Y600640D02*
X149461Y601296D01*
X148149D01*
X147493Y600640D01*
Y598017D01*
X148149Y597361D01*
X149461D01*
X150117Y598017D01*
Y599329D01*
X148805D01*
X151429D02*
X154053D01*
X155365Y601296D02*
Y598673D01*
X156676Y597361D01*
X157988Y598673D01*
Y601296D01*
X159300D02*
Y597361D01*
X161268D01*
X161924Y598017D01*
Y600640D01*
X161268Y601296D01*
X159300D01*
X167172Y597361D02*
Y601296D01*
X169140D01*
X169796Y600640D01*
Y599329D01*
X169140Y598673D01*
X167172D01*
X168484D02*
X169796Y597361D01*
X173731Y601296D02*
X171107D01*
Y597361D01*
X173731D01*
X171107Y599329D02*
X172419D01*
X175043Y601296D02*
Y597361D01*
X177011D01*
X177667Y598017D01*
Y600640D01*
X177011Y601296D01*
X175043D01*
X181603Y600640D02*
X180947Y601296D01*
X179635D01*
X178979Y600640D01*
Y599985D01*
X179635Y599329D01*
X180947D01*
X181603Y598673D01*
Y598017D01*
X180947Y597361D01*
X179635D01*
X178979Y598017D01*
X105512Y594684D02*
X108136D01*
X106824D01*
Y590748D01*
X111415Y594684D02*
X110103D01*
X109448Y594028D01*
Y591404D01*
X110103Y590748D01*
X111415D01*
X112071Y591404D01*
Y594028D01*
X111415Y594684D01*
X113383Y590748D02*
Y594684D01*
X115351D01*
X116007Y594028D01*
Y592716D01*
X115351Y592060D01*
X113383D01*
D54*
X0Y250000D02*
X17717D01*
X0D02*
Y614173D01*
X25591D01*
Y622047D01*
Y629921D01*
X86614Y0D02*
X399606D01*
X86614D02*
Y250000D01*
X17717D02*
X86614D01*
X25591Y629921D02*
X399606D01*
Y614173D02*
Y629921D01*
X425197Y15748D02*
Y614173D01*
X399606D02*
X425197D01*
X399606Y13780D02*
Y15748D01*
X425197D01*
X399606Y0D02*
Y13780D01*
D66*
X403543Y92914D02*
D03*
Y85039D02*
D03*
Y77165D02*
D03*
Y69291D02*
D03*
X411417Y100787D02*
D03*
Y92914D02*
D03*
Y85039D02*
D03*
Y77165D02*
D03*
Y69291D02*
D03*
X403543Y100787D02*
D03*
X411417Y53543D02*
D03*
Y61417D02*
D03*
X403543Y53543D02*
D03*
Y61417D02*
D03*
X152362Y409449D02*
D03*
D74*
X410433Y334646D02*
D03*
X382874D02*
D03*
X410433Y283465D02*
D03*
X382874D02*
D03*
D80*
X11811Y602362D02*
D03*
X98425Y23622D02*
D03*
X413386Y602362D02*
D03*
Y23622D02*
D03*
D107*
X178760Y375985D02*
D03*
X173760D02*
D03*
X168760D02*
D03*
X163760D02*
D03*
Y353937D02*
D03*
X168760D02*
D03*
X173760D02*
D03*
X178760D02*
D03*
X137776Y458661D02*
D03*
X142776D02*
D03*
X147776D02*
D03*
X152776D02*
D03*
Y480709D02*
D03*
X147776D02*
D03*
X142776D02*
D03*
X137776D02*
D03*
X135846Y375984D02*
D03*
X130847D02*
D03*
X125847D02*
D03*
X120846D02*
D03*
Y353937D02*
D03*
X125847D02*
D03*
X130847D02*
D03*
X135846D02*
D03*
D108*
X171260Y364961D02*
D03*
D109*
X220079Y375591D02*
D03*
Y335827D02*
D03*
D110*
X129165Y70428D02*
D03*
Y76028D02*
D03*
X122047D02*
D03*
Y70428D02*
D03*
X137401Y70428D02*
D03*
Y76028D02*
D03*
X250000Y70035D02*
D03*
Y75635D02*
D03*
X120079Y118942D02*
D03*
Y113342D02*
D03*
X120866Y176028D02*
D03*
Y170428D02*
D03*
X120866Y155468D02*
D03*
Y161068D02*
D03*
X221260Y118942D02*
D03*
Y113342D02*
D03*
X119685Y151619D02*
D03*
Y146019D02*
D03*
X118898Y266491D02*
D03*
Y272091D02*
D03*
X123622Y266491D02*
D03*
Y272091D02*
D03*
X128347Y266491D02*
D03*
Y272091D02*
D03*
X201575Y420428D02*
D03*
Y426028D02*
D03*
X295276Y202013D02*
D03*
Y196413D02*
D03*
X119685Y136570D02*
D03*
Y142170D02*
D03*
X94488Y440901D02*
D03*
Y446501D02*
D03*
X125197Y217672D02*
D03*
Y223272D02*
D03*
X119685D02*
D03*
Y217672D02*
D03*
X116142Y241383D02*
D03*
Y235783D02*
D03*
X138583Y209887D02*
D03*
Y204287D02*
D03*
X138583Y216885D02*
D03*
Y222485D02*
D03*
X205142Y548304D02*
D03*
Y542704D02*
D03*
X91732Y343351D02*
D03*
Y337751D02*
D03*
X221654Y470517D02*
D03*
Y464917D02*
D03*
X90551Y384208D02*
D03*
Y389808D02*
D03*
D111*
X150743Y93307D02*
D03*
X156343D02*
D03*
X308312Y107874D02*
D03*
X302712D02*
D03*
X184601Y378346D02*
D03*
X190201D02*
D03*
X100350Y144488D02*
D03*
X105950D02*
D03*
X192869Y94095D02*
D03*
X198469D02*
D03*
X222003Y170079D02*
D03*
X227603D02*
D03*
X222791Y143307D02*
D03*
X228391D02*
D03*
X222791Y148031D02*
D03*
X228391D02*
D03*
X222003Y181890D02*
D03*
X227603D02*
D03*
X176816Y417323D02*
D03*
X171216D02*
D03*
X205556Y409449D02*
D03*
X199956D02*
D03*
X387751Y171260D02*
D03*
X393351D02*
D03*
X418548Y170473D02*
D03*
X412948D02*
D03*
X387751Y213780D02*
D03*
X393351D02*
D03*
X418154Y212205D02*
D03*
X412554D02*
D03*
X98863Y361023D02*
D03*
X93263D02*
D03*
X333903Y87008D02*
D03*
X328303D02*
D03*
X333902Y92520D02*
D03*
X328302D02*
D03*
X333902Y98032D02*
D03*
X328302D02*
D03*
X185083Y403346D02*
D03*
X179483D02*
D03*
X169641Y403346D02*
D03*
X175241D02*
D03*
X150438Y489370D02*
D03*
X144838D02*
D03*
X343657Y114173D02*
D03*
X349257D02*
D03*
X343657Y98425D02*
D03*
X349257D02*
D03*
X343657Y137795D02*
D03*
X349257D02*
D03*
X343657Y157480D02*
D03*
X349257D02*
D03*
X361373Y186221D02*
D03*
X366973D02*
D03*
X362554Y229528D02*
D03*
X368154D02*
D03*
X303981Y387795D02*
D03*
X298381D02*
D03*
X303981Y401575D02*
D03*
X298381D02*
D03*
X303981Y415354D02*
D03*
X298381D02*
D03*
X223972Y409055D02*
D03*
X229572D02*
D03*
X226334Y442126D02*
D03*
X231934D02*
D03*
X194050Y434252D02*
D03*
X199650D02*
D03*
X303981Y429134D02*
D03*
X298381D02*
D03*
X105468Y559055D02*
D03*
X111068D02*
D03*
X105468Y529528D02*
D03*
X111068D02*
D03*
X105861Y572835D02*
D03*
X111461D02*
D03*
X105468Y545275D02*
D03*
X111068D02*
D03*
X337446Y179134D02*
D03*
X331846D02*
D03*
X337446Y192913D02*
D03*
X331846D02*
D03*
X337446Y208268D02*
D03*
X331846D02*
D03*
X337446Y220866D02*
D03*
X331846D02*
D03*
D112*
X205709Y102362D02*
D03*
X203740D02*
D03*
X201772D02*
D03*
X199803D02*
D03*
X197835D02*
D03*
X195866D02*
D03*
X193898D02*
D03*
X191929D02*
D03*
X189961D02*
D03*
X187992D02*
D03*
X186024D02*
D03*
X184055D02*
D03*
X182087D02*
D03*
X180118D02*
D03*
X178150D02*
D03*
X176181D02*
D03*
X174213D02*
D03*
X172244D02*
D03*
X170276D02*
D03*
X168307D02*
D03*
X166339D02*
D03*
X164370D02*
D03*
X162402D02*
D03*
X160433D02*
D03*
X158465D02*
D03*
X156496D02*
D03*
X154528D02*
D03*
X152559D02*
D03*
X150591D02*
D03*
X148622D02*
D03*
X146653D02*
D03*
X144685D02*
D03*
X142717D02*
D03*
X140748D02*
D03*
X138779D02*
D03*
X136811D02*
D03*
Y188976D02*
D03*
X138779D02*
D03*
X140748D02*
D03*
X142717D02*
D03*
X144685D02*
D03*
X146653D02*
D03*
X148622D02*
D03*
X150591D02*
D03*
X152559D02*
D03*
X154528D02*
D03*
X156496D02*
D03*
X158465D02*
D03*
X160433D02*
D03*
X162402D02*
D03*
X164370D02*
D03*
X166339D02*
D03*
X168307D02*
D03*
X170276D02*
D03*
X172244D02*
D03*
X174213D02*
D03*
X176181D02*
D03*
X178150D02*
D03*
X180118D02*
D03*
X182087D02*
D03*
X184055D02*
D03*
X186024D02*
D03*
X187992D02*
D03*
X189961D02*
D03*
X191929D02*
D03*
X193898D02*
D03*
X195866D02*
D03*
X197835D02*
D03*
X199803D02*
D03*
X201772D02*
D03*
X203740D02*
D03*
X205709D02*
D03*
D113*
X127953Y111221D02*
D03*
Y113189D02*
D03*
Y115157D02*
D03*
Y117126D02*
D03*
Y119095D02*
D03*
Y121063D02*
D03*
Y123031D02*
D03*
Y125000D02*
D03*
Y126969D02*
D03*
Y128937D02*
D03*
Y130905D02*
D03*
Y132874D02*
D03*
Y134843D02*
D03*
Y136811D02*
D03*
Y138779D02*
D03*
Y140748D02*
D03*
Y142717D02*
D03*
Y144685D02*
D03*
Y146653D02*
D03*
Y148622D02*
D03*
Y150591D02*
D03*
Y152559D02*
D03*
Y154527D02*
D03*
Y156496D02*
D03*
Y158465D02*
D03*
Y160433D02*
D03*
Y162401D02*
D03*
Y164370D02*
D03*
Y166339D02*
D03*
Y168307D02*
D03*
Y170275D02*
D03*
Y172244D02*
D03*
Y174213D02*
D03*
Y176181D02*
D03*
Y178149D02*
D03*
Y180118D02*
D03*
X214567D02*
D03*
Y178149D02*
D03*
Y176181D02*
D03*
Y174213D02*
D03*
Y172244D02*
D03*
Y170275D02*
D03*
Y168307D02*
D03*
Y166339D02*
D03*
Y164370D02*
D03*
Y162401D02*
D03*
Y160433D02*
D03*
Y158465D02*
D03*
Y156496D02*
D03*
Y154527D02*
D03*
Y152559D02*
D03*
Y150591D02*
D03*
Y148622D02*
D03*
Y146653D02*
D03*
Y144685D02*
D03*
Y142717D02*
D03*
Y140748D02*
D03*
Y138779D02*
D03*
Y136811D02*
D03*
Y134843D02*
D03*
Y132874D02*
D03*
Y130905D02*
D03*
Y128937D02*
D03*
Y126969D02*
D03*
Y125000D02*
D03*
Y123031D02*
D03*
Y121063D02*
D03*
Y119095D02*
D03*
Y117126D02*
D03*
Y115157D02*
D03*
Y113189D02*
D03*
Y111221D02*
D03*
D114*
X10236Y308858D02*
D03*
Y322638D02*
D03*
D115*
X12795Y315748D02*
D03*
D116*
X418110Y218504D02*
D03*
Y230315D02*
D03*
X418504Y176772D02*
D03*
Y188583D02*
D03*
D117*
X416535Y222835D02*
D03*
Y225984D02*
D03*
X416929Y181102D02*
D03*
Y184252D02*
D03*
D118*
X193709Y391339D02*
D03*
X167709D02*
D03*
X141347Y391339D02*
D03*
X115347D02*
D03*
D119*
X164366Y325984D02*
D03*
X177366D02*
D03*
X237209Y153937D02*
D03*
X224209D02*
D03*
X236421Y175984D02*
D03*
X223421D02*
D03*
D120*
X177616Y339764D02*
D03*
X164116D02*
D03*
X135097Y339370D02*
D03*
X121597D02*
D03*
D121*
X159843Y480972D02*
D03*
Y472572D02*
D03*
X269685Y361942D02*
D03*
Y370342D02*
D03*
X216142Y470735D02*
D03*
Y462335D02*
D03*
D122*
X156956Y441732D02*
D03*
X148556D02*
D03*
X156956Y448425D02*
D03*
X148556D02*
D03*
X132808D02*
D03*
X141208D02*
D03*
X157217Y434646D02*
D03*
X165617D02*
D03*
X178609Y409842D02*
D03*
X170209D02*
D03*
D123*
X113780Y169886D02*
D03*
Y156886D02*
D03*
D124*
X188583Y367913D02*
D03*
Y351771D02*
D03*
X219000Y515929D02*
D03*
Y532071D02*
D03*
D125*
X358268Y114173D02*
D03*
X370079D02*
D03*
X358268Y98425D02*
D03*
X370079D02*
D03*
D126*
X94488Y480315D02*
D03*
Y466929D02*
D03*
D127*
X120276Y325590D02*
D03*
X136417D02*
D03*
X269488Y401575D02*
D03*
X285630D02*
D03*
X269488Y387795D02*
D03*
X285630D02*
D03*
X269488Y429134D02*
D03*
X285630D02*
D03*
X269488Y415354D02*
D03*
X285630D02*
D03*
X139961Y529528D02*
D03*
X123819D02*
D03*
X139961Y559055D02*
D03*
X123819D02*
D03*
X139961Y545275D02*
D03*
X123819D02*
D03*
X139961Y572835D02*
D03*
X123819D02*
D03*
D128*
X222071Y545504D02*
D03*
X213409Y541764D02*
D03*
Y549244D02*
D03*
D129*
X361811Y137795D02*
D03*
X398031D02*
D03*
X361811Y157480D02*
D03*
X398031D02*
D03*
D130*
X294882Y102382D02*
D03*
Y97382D02*
D03*
Y92382D02*
D03*
Y87382D02*
D03*
X316929D02*
D03*
Y92382D02*
D03*
Y97382D02*
D03*
Y102382D02*
D03*
D131*
X121553Y231495D02*
D03*
X124112D02*
D03*
X126672D02*
D03*
X129231D02*
D03*
X121553Y259054D02*
D03*
X124112D02*
D03*
X126672D02*
D03*
X129231D02*
D03*
X131790D02*
D03*
X134349D02*
D03*
X136908D02*
D03*
X139467D02*
D03*
X142026D02*
D03*
X144585D02*
D03*
Y231495D02*
D03*
X142026D02*
D03*
X139467D02*
D03*
X136908D02*
D03*
X134349D02*
D03*
X131790D02*
D03*
X317912Y186613D02*
D03*
Y214172D02*
D03*
X302557Y186613D02*
D03*
X305117D02*
D03*
X307676D02*
D03*
X310234D02*
D03*
X302557Y214172D02*
D03*
X305117D02*
D03*
X307676D02*
D03*
X310234D02*
D03*
X312793D02*
D03*
X315353D02*
D03*
Y186613D02*
D03*
X312793D02*
D03*
D132*
X101575Y373819D02*
D03*
Y366338D02*
D03*
Y370079D02*
D03*
X91339Y373819D02*
D03*
Y366338D02*
D03*
D133*
X110905Y128740D02*
D03*
X100905D02*
D03*
Y137402D02*
D03*
X110905D02*
D03*
D134*
X226477Y471063D02*
D03*
X229035D02*
D03*
X231594D02*
D03*
X234154D02*
D03*
Y454134D02*
D03*
X231594D02*
D03*
X229035D02*
D03*
X226477D02*
D03*
D135*
X414764Y350590D02*
D03*
X407283Y318701D02*
D03*
X414764Y299410D02*
D03*
X407283Y267520D02*
D03*
D136*
X378150Y350590D02*
D03*
Y299410D02*
D03*
D137*
X403543Y234055D02*
D03*
X375984D02*
D03*
X403543Y218701D02*
D03*
Y221260D02*
D03*
Y223819D02*
D03*
Y226378D02*
D03*
X375984Y218701D02*
D03*
Y221260D02*
D03*
Y223819D02*
D03*
Y226378D02*
D03*
Y228937D02*
D03*
Y231496D02*
D03*
X403543D02*
D03*
Y228937D02*
D03*
Y191929D02*
D03*
X375984D02*
D03*
X403543Y176575D02*
D03*
Y179134D02*
D03*
Y181693D02*
D03*
Y184252D02*
D03*
X375984Y176575D02*
D03*
Y179134D02*
D03*
Y181693D02*
D03*
Y184252D02*
D03*
Y186811D02*
D03*
Y189370D02*
D03*
X403543D02*
D03*
Y186811D02*
D03*
D138*
X117598Y35531D02*
D03*
Y55020D02*
D03*
X127599Y35531D02*
D03*
Y55020D02*
D03*
X137599Y35531D02*
D03*
Y55020D02*
D03*
X147599Y35531D02*
D03*
Y55020D02*
D03*
X157598Y35531D02*
D03*
Y55020D02*
D03*
X167598Y35531D02*
D03*
Y55020D02*
D03*
X177599Y35531D02*
D03*
Y55020D02*
D03*
X187599Y35531D02*
D03*
Y55020D02*
D03*
X197599Y35531D02*
D03*
Y55020D02*
D03*
X207598Y35531D02*
D03*
Y55020D02*
D03*
X217599Y35531D02*
D03*
Y55020D02*
D03*
X227599Y35531D02*
D03*
Y55020D02*
D03*
X237598Y35531D02*
D03*
Y55020D02*
D03*
X247599Y35531D02*
D03*
Y55020D02*
D03*
X257598Y35531D02*
D03*
Y55020D02*
D03*
X267599Y35531D02*
D03*
Y55020D02*
D03*
X277599Y35531D02*
D03*
Y55020D02*
D03*
X287598Y35531D02*
D03*
Y55020D02*
D03*
X297599Y35531D02*
D03*
Y55020D02*
D03*
X307598Y35531D02*
D03*
Y55020D02*
D03*
D139*
X226378Y420275D02*
D03*
Y422244D02*
D03*
Y424213D02*
D03*
Y426181D02*
D03*
Y428150D02*
D03*
Y430118D02*
D03*
Y432087D02*
D03*
Y434055D02*
D03*
X206693D02*
D03*
Y432087D02*
D03*
Y430118D02*
D03*
Y428150D02*
D03*
Y426181D02*
D03*
Y424213D02*
D03*
Y422244D02*
D03*
Y420275D02*
D03*
D140*
X223425Y437008D02*
D03*
X221457D02*
D03*
X219488D02*
D03*
X217520D02*
D03*
X215551D02*
D03*
X213583D02*
D03*
X211614D02*
D03*
X209646D02*
D03*
Y417323D02*
D03*
X211614D02*
D03*
X213583D02*
D03*
X215551D02*
D03*
X217520D02*
D03*
X219488D02*
D03*
X221457D02*
D03*
X223425D02*
D03*
D141*
X216535Y427165D02*
D03*
D142*
X237874Y537972D02*
D03*
X257874D02*
D03*
X267874D02*
D03*
X277874D02*
D03*
Y509272D02*
D03*
X267874D02*
D03*
X257874D02*
D03*
X237874D02*
D03*
D143*
X43307Y262598D02*
D03*
X30512Y281496D02*
D03*
X55118D02*
D03*
D144*
X250000Y457008D02*
D03*
Y484252D02*
D03*
X273622Y480630D02*
D03*
Y470630D02*
D03*
X250000Y563307D02*
D03*
Y590551D02*
D03*
X273622Y586929D02*
D03*
Y576929D02*
D03*
X346457Y325276D02*
D03*
Y305276D02*
D03*
Y315276D02*
D03*
X322835Y323898D02*
D03*
Y296654D02*
D03*
D145*
X273622Y460630D02*
D03*
Y566929D02*
D03*
X346457Y295276D02*
D03*
D146*
X33465Y579528D02*
D03*
X58464D02*
D03*
X83464D02*
D03*
Y529528D02*
D03*
X58464D02*
D03*
X33465D02*
D03*
X9646Y539528D02*
D03*
X45945Y534527D02*
D03*
X70945D02*
D03*
Y584527D02*
D03*
X45945D02*
D03*
X20968D02*
D03*
Y534527D02*
D03*
X393701Y457874D02*
D03*
X368701D02*
D03*
X343701D02*
D03*
Y507874D02*
D03*
X368701D02*
D03*
X393701D02*
D03*
X417520Y497874D02*
D03*
X381220Y502874D02*
D03*
X356220D02*
D03*
Y452874D02*
D03*
X381220D02*
D03*
X406197D02*
D03*
Y502874D02*
D03*
X393701Y536614D02*
D03*
X368701D02*
D03*
X343701D02*
D03*
Y586614D02*
D03*
X368701D02*
D03*
X393701D02*
D03*
X417520Y576614D02*
D03*
X381220Y581614D02*
D03*
X356220D02*
D03*
Y531614D02*
D03*
X381220D02*
D03*
X406197D02*
D03*
Y581614D02*
D03*
X393701Y379134D02*
D03*
X368701D02*
D03*
X343701D02*
D03*
Y429134D02*
D03*
X368701D02*
D03*
X393701D02*
D03*
X417520Y419134D02*
D03*
X381220Y424134D02*
D03*
X356220D02*
D03*
Y374134D02*
D03*
X381220D02*
D03*
X406197D02*
D03*
Y424134D02*
D03*
D147*
X31496Y399606D02*
D03*
Y340551D02*
D03*
Y490158D02*
D03*
Y431102D02*
D03*
D148*
X61023Y389764D02*
D03*
Y350394D02*
D03*
X51181Y399606D02*
D03*
Y370079D02*
D03*
Y340551D02*
D03*
X11811Y360236D02*
D03*
Y379921D02*
D03*
X61023Y480315D02*
D03*
Y440945D02*
D03*
X51181Y490158D02*
D03*
Y460630D02*
D03*
Y431102D02*
D03*
X11811Y450788D02*
D03*
Y470472D02*
D03*
D149*
X81495Y308664D02*
D03*
X151573D02*
D03*
Y288979D02*
D03*
X81495D02*
D03*
D150*
X375984Y56457D02*
D03*
Y46457D02*
D03*
X387795Y56457D02*
D03*
Y46457D02*
D03*
X376890Y68504D02*
D03*
X164449Y262717D02*
D03*
X154449Y272717D02*
D03*
X164449D02*
D03*
X181968Y273110D02*
D03*
X191969Y263110D02*
D03*
Y273110D02*
D03*
X201969Y263110D02*
D03*
Y273110D02*
D03*
X211968Y263110D02*
D03*
Y273110D02*
D03*
X221969Y263110D02*
D03*
D151*
X375984Y36457D02*
D03*
X387795D02*
D03*
X154449Y262717D02*
D03*
D152*
X386890Y68504D02*
D03*
X181968Y263110D02*
D03*
X221969Y273110D02*
D03*
D153*
X326772Y45276D02*
D03*
Y238189D02*
D03*
X98425D02*
D03*
Y45276D02*
D03*
D154*
X397244Y592815D02*
D03*
X381496Y561319D02*
D03*
X397244Y529823D02*
D03*
Y466831D02*
D03*
X381496Y435335D02*
D03*
X397244Y403839D02*
D03*
X365748Y592815D02*
D03*
X350000Y561319D02*
D03*
X365748Y529823D02*
D03*
Y403839D02*
D03*
X318504Y561319D02*
D03*
X334252Y529823D02*
D03*
X318504Y498327D02*
D03*
Y372342D02*
D03*
X287008Y561319D02*
D03*
X302756Y529823D02*
D03*
X287008Y498327D02*
D03*
Y435335D02*
D03*
Y372342D02*
D03*
X255512Y498327D02*
D03*
X239764Y466831D02*
D03*
X232087Y145669D02*
D03*
X122441Y391437D02*
D03*
X311024Y87402D02*
D03*
X123228Y320079D02*
D03*
X116929D02*
D03*
X113386Y325591D02*
D03*
X201575Y429528D02*
D03*
X178346Y583857D02*
D03*
X172441Y583858D02*
D03*
X146850Y529528D02*
D03*
Y545275D02*
D03*
Y559055D02*
D03*
X146850Y572835D02*
D03*
X117717Y444882D02*
D03*
X123228D02*
D03*
X137795Y486614D02*
D03*
X148819Y437402D02*
D03*
X165748Y429921D02*
D03*
Y439370D02*
D03*
X112409Y398031D02*
D03*
X118405Y398031D02*
D03*
X295276Y205906D02*
D03*
X357874Y186221D02*
D03*
X359055Y229528D02*
D03*
X257480Y164961D02*
D03*
X253543Y133071D02*
D03*
X211024Y511811D02*
D03*
X208071Y522047D02*
D03*
X207961Y508749D02*
D03*
X258268Y130709D02*
D03*
X42126Y548032D02*
D03*
X385433Y408661D02*
D03*
X220374Y489075D02*
D03*
X224803Y486221D02*
D03*
X184646Y341339D02*
D03*
X160630Y353543D02*
D03*
X206693Y401181D02*
D03*
X116535Y336614D02*
D03*
Y342520D02*
D03*
X201575Y497244D02*
D03*
Y502756D02*
D03*
X209055Y472046D02*
D03*
X264961Y361811D02*
D03*
X269685Y357480D02*
D03*
X274410Y362205D02*
D03*
X237008Y454331D02*
D03*
X235433Y442126D02*
D03*
X203543Y460236D02*
D03*
Y465748D02*
D03*
X184252Y460236D02*
D03*
Y465748D02*
D03*
X190551Y434252D02*
D03*
X199212Y545668D02*
D03*
X127165Y510236D02*
D03*
X112205Y506298D02*
D03*
X216929Y482282D02*
D03*
X202756Y482283D02*
D03*
X208661Y486221D02*
D03*
X164173Y548819D02*
D03*
X116142Y529528D02*
D03*
Y544882D02*
D03*
Y559055D02*
D03*
Y572835D02*
D03*
X121653Y477559D02*
D03*
X262992Y45276D02*
D03*
X242885Y123622D02*
D03*
X239405Y120142D02*
D03*
X232445D02*
D03*
X235925Y123622D02*
D03*
X138583Y213386D02*
D03*
X132283Y272047D02*
D03*
Y266535D02*
D03*
X100394Y148425D02*
D03*
X116142Y113386D02*
D03*
Y118898D02*
D03*
X109055Y170079D02*
D03*
Y157087D02*
D03*
X241339Y175984D02*
D03*
X174409Y207874D02*
D03*
X200787Y204724D02*
D03*
X231496Y170079D02*
D03*
Y181890D02*
D03*
X225197Y113386D02*
D03*
Y118898D02*
D03*
X242520Y153937D02*
D03*
X259842Y70079D02*
D03*
X194488Y84252D02*
D03*
X142520Y66535D02*
D03*
X183858Y79528D02*
D03*
X178740D02*
D03*
X133071Y66929D02*
D03*
X122441Y65748D02*
D03*
X156299Y84645D02*
D03*
X160630Y93307D02*
D03*
X167717Y93701D02*
D03*
X200641Y522047D02*
D03*
X238976Y389370D02*
D03*
X244882Y182283D02*
D03*
X249213Y189370D02*
D03*
X168110Y80315D02*
D03*
X113386Y20472D02*
D03*
X279528Y226772D02*
D03*
X387402Y259055D02*
D03*
X291732D02*
D03*
Y323228D02*
D03*
X15000Y309000D02*
D03*
D155*
X219685Y424016D02*
D03*
X213386D02*
D03*
X219685Y430315D02*
D03*
X213386D02*
D03*
X167323Y465354D02*
D03*
X161417Y465354D02*
D03*
X167323Y472441D02*
D03*
Y479921D02*
D03*
X167323Y486221D02*
D03*
X167323Y492520D02*
D03*
X161024Y488189D02*
D03*
X227953Y401575D02*
D03*
X287598Y64764D02*
D03*
X257480Y223228D02*
D03*
X224016Y398425D02*
D03*
X297599Y64528D02*
D03*
X87402Y479921D02*
D03*
X98819Y356693D02*
D03*
X341732Y179134D02*
D03*
X42126Y514961D02*
D03*
X185039Y420472D02*
D03*
X207087Y388189D02*
D03*
X219685D02*
D03*
X153543Y385039D02*
D03*
X157480Y392126D02*
D03*
X153543Y399213D02*
D03*
X153150Y324803D02*
D03*
X156693Y330709D02*
D03*
X153150Y336221D02*
D03*
X156299Y342520D02*
D03*
X217717Y444488D02*
D03*
X211811Y446850D02*
D03*
X203150Y447638D02*
D03*
X196850Y443701D02*
D03*
X217599Y64449D02*
D03*
X207598Y64449D02*
D03*
X197638Y64567D02*
D03*
X157874Y64960D02*
D03*
X375984Y98425D02*
D03*
Y114173D02*
D03*
X354331Y137795D02*
D03*
Y157480D02*
D03*
X237795Y25591D02*
D03*
X187599Y64370D02*
D03*
X267717Y64567D02*
D03*
X187795Y25591D02*
D03*
X197638D02*
D03*
X207480D02*
D03*
X217717D02*
D03*
X227559D02*
D03*
X341732Y192913D02*
D03*
X341339Y220866D02*
D03*
X341338Y208268D02*
D03*
X295276Y192520D02*
D03*
X322046Y214172D02*
D03*
X277599Y64527D02*
D03*
X227559Y64567D02*
D03*
X257480D02*
D03*
X247599Y64528D02*
D03*
X237598Y64370D02*
D03*
X87795Y466929D02*
D03*
X347987Y92958D02*
D03*
X333858Y102756D02*
D03*
X339370Y114173D02*
D03*
Y98425D02*
D03*
X397638Y162992D02*
D03*
X398031Y132283D02*
D03*
X339764Y157480D02*
D03*
Y137795D02*
D03*
X181890Y25591D02*
D03*
X147638Y25984D02*
D03*
Y64567D02*
D03*
X247638Y25984D02*
D03*
X167717D02*
D03*
X312205Y55118D02*
D03*
X302756D02*
D03*
X315354Y38583D02*
D03*
X320472Y33071D02*
D03*
X315748Y27953D02*
D03*
X307480Y64567D02*
D03*
X244882Y230709D02*
D03*
X237921Y500079D02*
D03*
M02*
