G04 Layer_Color=32896*
%FSLAX25Y25*%
%MOIN*%
G70*
G01*
G75*
%ADD47C,0.00787*%
%ADD52C,0.02362*%
%ADD54C,0.01000*%
%ADD100C,0.00984*%
%ADD106C,0.00709*%
D47*
X190059Y469980D02*
G03*
X190059Y469980I-433J0D01*
G01*
X209744D02*
G03*
X209744Y469980I-433J0D01*
G01*
X183209Y573622D02*
G03*
X183209Y573622I-1476J0D01*
G01*
X190650Y457480D02*
X202854D01*
X190650D02*
Y467717D01*
X202854D01*
Y457480D02*
Y467717D01*
X210335Y457480D02*
X222539D01*
X210335D02*
Y467717D01*
X222539D01*
Y457480D02*
Y467717D01*
X185335Y462992D02*
X190256D01*
X205020Y462992D02*
X209941D01*
X103150Y452756D02*
X121260D01*
Y492126D01*
X103150D02*
X121260D01*
X103150Y452756D02*
Y492126D01*
X184232Y531122D02*
Y576122D01*
X161732Y531122D02*
Y576122D01*
Y531122D02*
X186732D01*
X161732Y576122D02*
X186732D01*
Y531122D02*
Y576122D01*
X200787Y187697D02*
Y192618D01*
X43602Y517717D02*
X48524D01*
X68405D02*
X73327D01*
X56201D02*
X61122D01*
X81004D02*
X85925D01*
X349508Y90158D02*
X354429D01*
X357382D02*
X362303D01*
X365256D02*
X370177D01*
X137303Y468898D02*
X142225D01*
X43602Y545276D02*
X48524D01*
X68405D02*
X73327D01*
X56201D02*
X61122D01*
X81004D02*
X85925D01*
X378642Y411417D02*
X383563D01*
X353839D02*
X358760D01*
X366043D02*
X370965D01*
X341240D02*
X346161D01*
X42520Y291732D02*
Y297244D01*
X217323Y490453D02*
Y495374D01*
X203051Y500000D02*
X207972D01*
X120472Y446358D02*
Y451280D01*
X171555Y114567D02*
X176476D01*
X140157Y145965D02*
Y150886D01*
X178740Y177067D02*
Y181988D01*
X202264Y161417D02*
X207185D01*
X202264Y140551D02*
X207185D01*
X139665Y162402D02*
X146161D01*
X139665Y164370D02*
X146161D01*
X158169Y101575D02*
X163091D01*
X171949Y201181D02*
X176870D01*
X194390Y201968D02*
X199311D01*
X149606Y196358D02*
Y201280D01*
X149016Y201476D02*
Y207972D01*
X150984Y201476D02*
Y207972D01*
X165256Y101575D02*
X170177D01*
X175098D02*
X180020D01*
X150689Y101772D02*
X157185D01*
X150689Y99803D02*
X157185D01*
X186516Y87008D02*
X191437D01*
X181398Y87008D02*
X186319D01*
X176280Y87008D02*
X181201D01*
X173917Y165354D02*
X178839D01*
X162106Y169193D02*
X166240D01*
Y157579D02*
Y169193D01*
X162106Y157579D02*
X166240D01*
X162106D02*
Y169193D01*
X148425Y162992D02*
X153937D01*
X175197Y577461D02*
Y582382D01*
X213386Y504134D02*
X220866D01*
X213386Y496260D02*
X220866D01*
D52*
X109449Y457480D02*
G03*
X109449Y457480I-1181J0D01*
G01*
D54*
X168036Y170693D02*
G03*
X168036Y170693I-418J0D01*
G01*
X215375Y498228D02*
G03*
X215375Y498228I-710J0D01*
G01*
X0Y250000D02*
X17717D01*
X0D02*
Y614173D01*
X25591D01*
Y622047D01*
Y629921D01*
X86614Y0D02*
X399606D01*
X86614D02*
Y250000D01*
X17717D02*
X86614D01*
X25591Y629921D02*
X399606D01*
Y614173D02*
Y629921D01*
X425197Y15748D02*
Y614173D01*
X399606D02*
X425197D01*
X399606Y13780D02*
Y15748D01*
X425197D01*
X399606Y0D02*
Y13780D01*
D100*
X97631Y452913D02*
G03*
X97631Y452913I-492J0D01*
G01*
X190157Y577205D02*
G03*
X190157Y577205I-492J0D01*
G01*
D106*
X189762Y472441D02*
X186483D01*
X185827Y473097D01*
Y474409D01*
X186483Y475065D01*
X189762D01*
X185827Y476377D02*
Y477689D01*
Y477033D01*
X189762D01*
X189107Y476377D01*
X189762Y482280D02*
Y479657D01*
X187795D01*
X188451Y480968D01*
Y481624D01*
X187795Y482280D01*
X186483D01*
X185827Y481624D01*
Y480312D01*
X186483Y479657D01*
X228739Y457874D02*
X225459D01*
X224803Y458530D01*
Y459842D01*
X225459Y460498D01*
X228739D01*
X224803Y461810D02*
Y463122D01*
Y462466D01*
X228739D01*
X228083Y461810D01*
Y465090D02*
X228739Y465745D01*
Y467057D01*
X228083Y467713D01*
X227427D01*
X226771Y467057D01*
Y466401D01*
Y467057D01*
X226115Y467713D01*
X225459D01*
X224803Y467057D01*
Y465745D01*
X225459Y465090D01*
X180445Y460498D02*
X181101Y459842D01*
Y458530D01*
X180445Y457874D01*
X177821D01*
X177165Y458530D01*
Y459842D01*
X177821Y460498D01*
X181101Y464434D02*
Y461810D01*
X179133D01*
X179789Y463122D01*
Y463778D01*
X179133Y464434D01*
X177821D01*
X177165Y463778D01*
Y462466D01*
X177821Y461810D01*
X181101Y468369D02*
X180445Y467057D01*
X179133Y465745D01*
X177821D01*
X177165Y466401D01*
Y467713D01*
X177821Y468369D01*
X178477D01*
X179133Y467713D01*
Y465745D01*
X208726Y450426D02*
X209251Y449901D01*
Y448852D01*
X208726Y448327D01*
X206627D01*
X206102Y448852D01*
Y449901D01*
X206627Y450426D01*
X209251Y453574D02*
Y451475D01*
X207677D01*
X208201Y452525D01*
Y453050D01*
X207677Y453574D01*
X206627D01*
X206102Y453050D01*
Y452000D01*
X206627Y451475D01*
X208726Y454624D02*
X209251Y455149D01*
Y456198D01*
X208726Y456723D01*
X208201D01*
X207677Y456198D01*
Y455674D01*
Y456198D01*
X207152Y456723D01*
X206627D01*
X206102Y456198D01*
Y455149D01*
X206627Y454624D01*
X224016Y509841D02*
Y506562D01*
X223360Y505905D01*
X222048D01*
X221392Y506562D01*
Y509841D01*
X220080Y505905D02*
X218768D01*
X219424D01*
Y509841D01*
X220080Y509185D01*
X214832Y505905D02*
Y509841D01*
X216800Y507873D01*
X214176D01*
X115354Y498818D02*
Y495538D01*
X114698Y494882D01*
X113386D01*
X112731Y495538D01*
Y498818D01*
X111419D02*
X108795D01*
Y498162D01*
X111419Y495538D01*
Y494882D01*
X165748Y175589D02*
Y172310D01*
X165092Y171653D01*
X163780D01*
X163124Y172310D01*
Y175589D01*
X159188D02*
X161812D01*
Y173621D01*
X160500Y174277D01*
X159844D01*
X159188Y173621D01*
Y172310D01*
X159844Y171653D01*
X161156D01*
X161812Y172310D01*
X188189Y583463D02*
Y580184D01*
X187533Y579528D01*
X186221D01*
X185565Y580184D01*
Y583463D01*
X184253Y579528D02*
X182941D01*
X183597D01*
Y583463D01*
X184253Y582807D01*
X194095Y188189D02*
Y192125D01*
X192127D01*
X191471Y191469D01*
Y190157D01*
X192127Y189501D01*
X194095D01*
X192783D02*
X191471Y188189D01*
X187535Y192125D02*
X190159D01*
Y190157D01*
X188847Y190813D01*
X188191D01*
X187535Y190157D01*
Y188845D01*
X188191Y188189D01*
X189503D01*
X190159Y188845D01*
X186223Y192125D02*
X183599D01*
Y191469D01*
X186223Y188845D01*
Y188189D01*
X44094Y500000D02*
X48030D01*
Y501968D01*
X47374Y502624D01*
X46062D01*
X45406Y501968D01*
Y500000D01*
Y501312D02*
X44094Y502624D01*
Y505904D02*
X48030D01*
X46062Y503936D01*
Y506560D01*
X47374Y507871D02*
X48030Y508527D01*
Y509839D01*
X47374Y510495D01*
X46718D01*
X46062Y509839D01*
X45406Y510495D01*
X44750D01*
X44094Y509839D01*
Y508527D01*
X44750Y507871D01*
X45406D01*
X46062Y508527D01*
X46718Y507871D01*
X47374D01*
X46062Y508527D02*
Y509839D01*
X68898Y499606D02*
X72833D01*
Y501574D01*
X72177Y502230D01*
X70865D01*
X70210Y501574D01*
Y499606D01*
Y500918D02*
X68898Y502230D01*
Y505510D02*
X72833D01*
X70865Y503542D01*
Y506166D01*
X72833Y507478D02*
Y510102D01*
X72177D01*
X69554Y507478D01*
X68898D01*
X57087Y499606D02*
X61022D01*
Y501574D01*
X60366Y502230D01*
X59054D01*
X58398Y501574D01*
Y499606D01*
Y500918D02*
X57087Y502230D01*
X60366Y503542D02*
X61022Y504198D01*
Y505510D01*
X60366Y506166D01*
X59710D01*
X59054Y505510D01*
Y504854D01*
Y505510D01*
X58398Y506166D01*
X57743D01*
X57087Y505510D01*
Y504198D01*
X57743Y503542D01*
X60366Y507478D02*
X61022Y508134D01*
Y509446D01*
X60366Y510102D01*
X57743D01*
X57087Y509446D01*
Y508134D01*
X57743Y507478D01*
X60366D01*
X81890Y499606D02*
X85826D01*
Y501574D01*
X85170Y502230D01*
X83858D01*
X83202Y501574D01*
Y499606D01*
Y500918D02*
X81890Y502230D01*
Y506166D02*
Y503542D01*
X84514Y506166D01*
X85170D01*
X85826Y505510D01*
Y504198D01*
X85170Y503542D01*
X82546Y507478D02*
X81890Y508134D01*
Y509446D01*
X82546Y510102D01*
X85170D01*
X85826Y509446D01*
Y508134D01*
X85170Y507478D01*
X84514D01*
X83858Y508134D01*
Y510102D01*
X350000Y96850D02*
X353936D01*
Y98818D01*
X353280Y99474D01*
X351968D01*
X351312Y98818D01*
Y96850D01*
Y98162D02*
X350000Y99474D01*
Y103410D02*
Y100786D01*
X352624Y103410D01*
X353280D01*
X353936Y102754D01*
Y101442D01*
X353280Y100786D01*
Y104722D02*
X353936Y105378D01*
Y106690D01*
X353280Y107346D01*
X352624D01*
X351968Y106690D01*
X351312Y107346D01*
X350656D01*
X350000Y106690D01*
Y105378D01*
X350656Y104722D01*
X351312D01*
X351968Y105378D01*
X352624Y104722D01*
X353280D01*
X351968Y105378D02*
Y106690D01*
X357874Y96850D02*
X361810D01*
Y98818D01*
X361154Y99474D01*
X359842D01*
X359186Y98818D01*
Y96850D01*
Y98162D02*
X357874Y99474D01*
Y103410D02*
Y100786D01*
X360498Y103410D01*
X361154D01*
X361810Y102754D01*
Y101442D01*
X361154Y100786D01*
X361810Y104722D02*
Y107346D01*
X361154D01*
X358530Y104722D01*
X357874D01*
X365748Y96850D02*
X369684D01*
Y98818D01*
X369028Y99474D01*
X367716D01*
X367060Y98818D01*
Y96850D01*
Y98162D02*
X365748Y99474D01*
Y103410D02*
Y100786D01*
X368372Y103410D01*
X369028D01*
X369684Y102754D01*
Y101442D01*
X369028Y100786D01*
X369684Y107346D02*
X369028Y106034D01*
X367716Y104722D01*
X366404D01*
X365748Y105378D01*
Y106690D01*
X366404Y107346D01*
X367060D01*
X367716Y106690D01*
Y104722D01*
X144095Y464567D02*
X148030D01*
Y466535D01*
X147374Y467191D01*
X146062D01*
X145406Y466535D01*
Y464567D01*
Y465879D02*
X144095Y467191D01*
Y468503D02*
Y469815D01*
Y469159D01*
X148030D01*
X147374Y468503D01*
Y471782D02*
X148030Y472438D01*
Y473750D01*
X147374Y474406D01*
X146718D01*
X146062Y473750D01*
X145406Y474406D01*
X144750D01*
X144095Y473750D01*
Y472438D01*
X144750Y471782D01*
X145406D01*
X146062Y472438D01*
X146718Y471782D01*
X147374D01*
X146062Y472438D02*
Y473750D01*
X47374Y555773D02*
X48030Y555118D01*
Y553806D01*
X47374Y553150D01*
X44750D01*
X44094Y553806D01*
Y555118D01*
X44750Y555773D01*
X48030Y559709D02*
X47374Y558397D01*
X46062Y557085D01*
X44750D01*
X44094Y557741D01*
Y559053D01*
X44750Y559709D01*
X45406D01*
X46062Y559053D01*
Y557085D01*
X44750Y561021D02*
X44094Y561677D01*
Y562989D01*
X44750Y563645D01*
X47374D01*
X48030Y562989D01*
Y561677D01*
X47374Y561021D01*
X46718D01*
X46062Y561677D01*
Y563645D01*
X72177Y555773D02*
X72833Y555118D01*
Y553806D01*
X72177Y553150D01*
X69554D01*
X68898Y553806D01*
Y555118D01*
X69554Y555773D01*
X72833Y559709D02*
X72177Y558397D01*
X70865Y557085D01*
X69554D01*
X68898Y557741D01*
Y559053D01*
X69554Y559709D01*
X70210D01*
X70865Y559053D01*
Y557085D01*
X72177Y561021D02*
X72833Y561677D01*
Y562989D01*
X72177Y563645D01*
X71522D01*
X70865Y562989D01*
X70210Y563645D01*
X69554D01*
X68898Y562989D01*
Y561677D01*
X69554Y561021D01*
X70210D01*
X70865Y561677D01*
X71522Y561021D01*
X72177D01*
X70865Y561677D02*
Y562989D01*
X59973Y555773D02*
X60629Y555118D01*
Y553806D01*
X59973Y553150D01*
X57349D01*
X56693Y553806D01*
Y555118D01*
X57349Y555773D01*
X60629Y559709D02*
X59973Y558397D01*
X58661Y557085D01*
X57349D01*
X56693Y557741D01*
Y559053D01*
X57349Y559709D01*
X58005D01*
X58661Y559053D01*
Y557085D01*
X60629Y561021D02*
Y563645D01*
X59973D01*
X57349Y561021D01*
X56693D01*
X84776Y556167D02*
X85432Y555511D01*
Y554199D01*
X84776Y553543D01*
X82152D01*
X81496Y554199D01*
Y555511D01*
X82152Y556167D01*
X85432Y560103D02*
X84776Y558791D01*
X83464Y557479D01*
X82152D01*
X81496Y558135D01*
Y559447D01*
X82152Y560103D01*
X82808D01*
X83464Y559447D01*
Y557479D01*
X85432Y564039D02*
X84776Y562727D01*
X83464Y561415D01*
X82152D01*
X81496Y562071D01*
Y563383D01*
X82152Y564039D01*
X82808D01*
X83464Y563383D01*
Y561415D01*
X382807Y396325D02*
X383463Y395669D01*
Y394357D01*
X382807Y393701D01*
X380184D01*
X379528Y394357D01*
Y395669D01*
X380184Y396325D01*
X383463Y400260D02*
X382807Y398948D01*
X381495Y397637D01*
X380184D01*
X379528Y398292D01*
Y399604D01*
X380184Y400260D01*
X380839D01*
X381495Y399604D01*
Y397637D01*
X383463Y404196D02*
Y401572D01*
X381495D01*
X382151Y402884D01*
Y403540D01*
X381495Y404196D01*
X380184D01*
X379528Y403540D01*
Y402228D01*
X380184Y401572D01*
X357611Y396325D02*
X358266Y395669D01*
Y394357D01*
X357611Y393701D01*
X354987D01*
X354331Y394357D01*
Y395669D01*
X354987Y396325D01*
X358266Y400260D02*
X357611Y398948D01*
X356299Y397637D01*
X354987D01*
X354331Y398292D01*
Y399604D01*
X354987Y400260D01*
X355643D01*
X356299Y399604D01*
Y397637D01*
X354331Y403540D02*
X358266D01*
X356299Y401572D01*
Y404196D01*
X369815Y396325D02*
X370471Y395669D01*
Y394357D01*
X369815Y393701D01*
X367191D01*
X366535Y394357D01*
Y395669D01*
X367191Y396325D01*
X370471Y400260D02*
X369815Y398948D01*
X368503Y397637D01*
X367191D01*
X366535Y398292D01*
Y399604D01*
X367191Y400260D01*
X367847D01*
X368503Y399604D01*
Y397637D01*
X369815Y401572D02*
X370471Y402228D01*
Y403540D01*
X369815Y404196D01*
X369159D01*
X368503Y403540D01*
Y402884D01*
Y403540D01*
X367847Y404196D01*
X367191D01*
X366535Y403540D01*
Y402228D01*
X367191Y401572D01*
X345406Y396325D02*
X346062Y395669D01*
Y394357D01*
X345406Y393701D01*
X342782D01*
X342126Y394357D01*
Y395669D01*
X342782Y396325D01*
X346062Y400260D02*
X345406Y398948D01*
X344094Y397637D01*
X342782D01*
X342126Y398292D01*
Y399604D01*
X342782Y400260D01*
X343438D01*
X344094Y399604D01*
Y397637D01*
X342126Y404196D02*
Y401572D01*
X344750Y404196D01*
X345406D01*
X346062Y403540D01*
Y402228D01*
X345406Y401572D01*
X44227Y302492D02*
X44883Y303148D01*
X46194D01*
X46850Y302492D01*
Y299869D01*
X46194Y299213D01*
X44883D01*
X44227Y299869D01*
X40291Y303148D02*
X41603Y302492D01*
X42915Y301181D01*
Y299869D01*
X42259Y299213D01*
X40947D01*
X40291Y299869D01*
Y300524D01*
X40947Y301181D01*
X42915D01*
X38979Y299213D02*
X37667D01*
X38323D01*
Y303148D01*
X38979Y302492D01*
X231628Y494225D02*
X232284Y494881D01*
X233596D01*
X234252Y494225D01*
Y491601D01*
X233596Y490945D01*
X232284D01*
X231628Y491601D01*
X227692Y494881D02*
X230316D01*
Y492913D01*
X229004Y493569D01*
X228348D01*
X227692Y492913D01*
Y491601D01*
X228348Y490945D01*
X229660D01*
X230316Y491601D01*
X223757Y494881D02*
X226380D01*
Y492913D01*
X225069Y493569D01*
X224413D01*
X223757Y492913D01*
Y491601D01*
X224413Y490945D01*
X225725D01*
X226380Y491601D01*
X197768Y497506D02*
X198424Y496850D01*
Y495538D01*
X197768Y494882D01*
X195144D01*
X194488Y495538D01*
Y496850D01*
X195144Y497506D01*
X198424Y501441D02*
Y498818D01*
X196456D01*
X197112Y500130D01*
Y500785D01*
X196456Y501441D01*
X195144D01*
X194488Y500785D01*
Y499474D01*
X195144Y498818D01*
X194488Y504721D02*
X198424D01*
X196456Y502753D01*
Y505377D01*
X111156Y449736D02*
X111812Y450392D01*
X113124D01*
X113779Y449736D01*
Y447113D01*
X113124Y446457D01*
X111812D01*
X111156Y447113D01*
X107876Y446457D02*
Y450392D01*
X109844Y448425D01*
X107220D01*
X103284Y446457D02*
X105908D01*
X103284Y449081D01*
Y449736D01*
X103940Y450392D01*
X105252D01*
X105908Y449736D01*
X181626Y114041D02*
X182282Y113385D01*
Y112073D01*
X181626Y111417D01*
X179002D01*
X178347Y112073D01*
Y113385D01*
X179002Y114041D01*
X178347Y117321D02*
X182282D01*
X180314Y115353D01*
Y117977D01*
X178347Y119289D02*
Y120601D01*
Y119945D01*
X182282D01*
X181626Y119289D01*
X127691Y150130D02*
X128347Y150786D01*
X129659D01*
X130315Y150130D01*
Y147506D01*
X129659Y146850D01*
X128347D01*
X127691Y147506D01*
X124411Y146850D02*
Y150786D01*
X126379Y148818D01*
X123755D01*
X122443Y150130D02*
X121788Y150786D01*
X120476D01*
X119820Y150130D01*
Y147506D01*
X120476Y146850D01*
X121788D01*
X122443Y147506D01*
Y150130D01*
X193045Y181233D02*
X193701Y181888D01*
X195013D01*
X195669Y181233D01*
Y178609D01*
X195013Y177953D01*
X193701D01*
X193045Y178609D01*
X191734Y181233D02*
X191078Y181888D01*
X189766D01*
X189110Y181233D01*
Y180577D01*
X189766Y179921D01*
X190422D01*
X189766D01*
X189110Y179265D01*
Y178609D01*
X189766Y177953D01*
X191078D01*
X191734Y178609D01*
X187798D02*
X187142Y177953D01*
X185830D01*
X185174Y178609D01*
Y181233D01*
X185830Y181888D01*
X187142D01*
X187798Y181233D01*
Y180577D01*
X187142Y179921D01*
X185174D01*
X199736Y158923D02*
X200392Y158267D01*
Y156955D01*
X199736Y156299D01*
X197113D01*
X196457Y156955D01*
Y158267D01*
X197113Y158923D01*
X199736Y160235D02*
X200392Y160891D01*
Y162203D01*
X199736Y162859D01*
X199081D01*
X198425Y162203D01*
Y161547D01*
Y162203D01*
X197769Y162859D01*
X197113D01*
X196457Y162203D01*
Y160891D01*
X197113Y160235D01*
X199736Y164171D02*
X200392Y164827D01*
Y166139D01*
X199736Y166795D01*
X199081D01*
X198425Y166139D01*
X197769Y166795D01*
X197113D01*
X196457Y166139D01*
Y164827D01*
X197113Y164171D01*
X197769D01*
X198425Y164827D01*
X199081Y164171D01*
X199736D01*
X198425Y164827D02*
Y166139D01*
X199736Y138057D02*
X200392Y137401D01*
Y136089D01*
X199736Y135433D01*
X197113D01*
X196457Y136089D01*
Y137401D01*
X197113Y138057D01*
X199736Y139369D02*
X200392Y140025D01*
Y141337D01*
X199736Y141993D01*
X199081D01*
X198425Y141337D01*
Y140681D01*
Y141337D01*
X197769Y141993D01*
X197113D01*
X196457Y141337D01*
Y140025D01*
X197113Y139369D01*
X200392Y143305D02*
Y145928D01*
X199736D01*
X197113Y143305D01*
X196457D01*
X143831Y178214D02*
X144487Y177558D01*
Y176247D01*
X143831Y175591D01*
X141207D01*
X140551Y176247D01*
Y177558D01*
X141207Y178214D01*
X143831Y179526D02*
X144487Y180182D01*
Y181494D01*
X143831Y182150D01*
X143175D01*
X142519Y181494D01*
Y180838D01*
Y181494D01*
X141863Y182150D01*
X141207D01*
X140551Y181494D01*
Y180182D01*
X141207Y179526D01*
X144487Y186086D02*
X143831Y184774D01*
X142519Y183462D01*
X141207D01*
X140551Y184118D01*
Y185430D01*
X141207Y186086D01*
X141863D01*
X142519Y185430D01*
Y183462D01*
X163910Y114041D02*
X164566Y113385D01*
Y112073D01*
X163910Y111417D01*
X161286D01*
X160630Y112073D01*
Y113385D01*
X161286Y114041D01*
X163910Y115353D02*
X164566Y116009D01*
Y117321D01*
X163910Y117977D01*
X163254D01*
X162598Y117321D01*
Y116665D01*
Y117321D01*
X161942Y117977D01*
X161286D01*
X160630Y117321D01*
Y116009D01*
X161286Y115353D01*
X164566Y121913D02*
Y119289D01*
X162598D01*
X163254Y120601D01*
Y121257D01*
X162598Y121913D01*
X161286D01*
X160630Y121257D01*
Y119945D01*
X161286Y119289D01*
X169422Y198687D02*
X170078Y198031D01*
Y196719D01*
X169422Y196063D01*
X166798D01*
X166142Y196719D01*
Y198031D01*
X166798Y198687D01*
X169422Y199999D02*
X170078Y200655D01*
Y201967D01*
X169422Y202623D01*
X168766D01*
X168110Y201967D01*
Y201311D01*
Y201967D01*
X167454Y202623D01*
X166798D01*
X166142Y201967D01*
Y200655D01*
X166798Y199999D01*
X169422Y203935D02*
X170078Y204590D01*
Y205902D01*
X169422Y206558D01*
X168766D01*
X168110Y205902D01*
Y205246D01*
Y205902D01*
X167454Y206558D01*
X166798D01*
X166142Y205902D01*
Y204590D01*
X166798Y203935D01*
X191862Y199081D02*
X192518Y198425D01*
Y197113D01*
X191862Y196457D01*
X189239D01*
X188583Y197113D01*
Y198425D01*
X189239Y199081D01*
X188583Y203016D02*
Y200392D01*
X191207Y203016D01*
X191862D01*
X192518Y202360D01*
Y201048D01*
X191862Y200392D01*
X192518Y206952D02*
Y204328D01*
X190550D01*
X191207Y205640D01*
Y206296D01*
X190550Y206952D01*
X189239D01*
X188583Y206296D01*
Y204984D01*
X189239Y204328D01*
X134778Y200524D02*
X135434Y201180D01*
X136746D01*
X137402Y200524D01*
Y197900D01*
X136746Y197244D01*
X135434D01*
X134778Y197900D01*
X130842Y197244D02*
X133466D01*
X130842Y199868D01*
Y200524D01*
X131498Y201180D01*
X132810D01*
X133466Y200524D01*
X127562Y197244D02*
Y201180D01*
X129530Y199212D01*
X126906D01*
X134777Y206033D02*
X135433Y206689D01*
X136745D01*
X137401Y206033D01*
Y203410D01*
X136745Y202754D01*
X135433D01*
X134777Y203410D01*
X130841Y202754D02*
X133465D01*
X130841Y205377D01*
Y206033D01*
X131497Y206689D01*
X132809D01*
X133465Y206033D01*
X129529D02*
X128873Y206689D01*
X127561D01*
X126905Y206033D01*
Y205377D01*
X127561Y204721D01*
X128217D01*
X127561D01*
X126905Y204065D01*
Y203410D01*
X127561Y202754D01*
X128873D01*
X129529Y203410D01*
X169422Y114140D02*
X170078Y113484D01*
Y112172D01*
X169422Y111516D01*
X166798D01*
X166142Y112172D01*
Y113484D01*
X166798Y114140D01*
X166142Y115452D02*
Y116763D01*
Y116107D01*
X170078D01*
X169422Y115452D01*
X170078Y118731D02*
Y121355D01*
X169422D01*
X166798Y118731D01*
X166142D01*
X185170Y100655D02*
X185826Y99999D01*
Y98687D01*
X185170Y98032D01*
X182546D01*
X181890Y98687D01*
Y99999D01*
X182546Y100655D01*
X181890Y101967D02*
Y103279D01*
Y102623D01*
X185826D01*
X185170Y101967D01*
X185826Y107871D02*
X185170Y106559D01*
X183858Y105247D01*
X182546D01*
X181890Y105903D01*
Y107215D01*
X182546Y107871D01*
X183202D01*
X183858Y107215D01*
Y105247D01*
X148162Y96718D02*
X148818Y96062D01*
Y94750D01*
X148162Y94095D01*
X145538D01*
X144882Y94750D01*
Y96062D01*
X145538Y96718D01*
X144882Y98030D02*
Y99342D01*
Y98686D01*
X148818D01*
X148162Y98030D01*
X148818Y103934D02*
Y101310D01*
X146850D01*
X147506Y102622D01*
Y103278D01*
X146850Y103934D01*
X145538D01*
X144882Y103278D01*
Y101966D01*
X145538Y101310D01*
X152888Y154067D02*
X153544Y154723D01*
X154856D01*
X155512Y154067D01*
Y151443D01*
X154856Y150787D01*
X153544D01*
X152888Y151443D01*
X151576D02*
X150920Y150787D01*
X149608D01*
X148952Y151443D01*
Y154067D01*
X149608Y154723D01*
X150920D01*
X151576Y154067D01*
Y153411D01*
X150920Y152755D01*
X148952D01*
X177689Y154592D02*
X178345Y153936D01*
Y152624D01*
X177689Y151969D01*
X175065D01*
X174409Y152624D01*
Y153936D01*
X175065Y154592D01*
X178345Y155904D02*
Y158528D01*
X177689D01*
X175065Y155904D01*
X174409D01*
X175329Y590288D02*
X175985Y590944D01*
X177297D01*
X177953Y590288D01*
Y587664D01*
X177297Y587008D01*
X175985D01*
X175329Y587664D01*
X174017Y587008D02*
X172705D01*
X173361D01*
Y590944D01*
X174017Y590288D01*
X316668Y66928D02*
X317979D01*
X317323D01*
Y63648D01*
X317979Y62992D01*
X318635D01*
X319291Y63648D01*
X315356Y62992D02*
X314044D01*
X314700D01*
Y66928D01*
X315356Y66272D01*
X187402Y69685D02*
X191337D01*
Y71653D01*
X190681Y72309D01*
X189369D01*
X188714Y71653D01*
Y69685D01*
Y70997D02*
X187402Y72309D01*
X190681Y73621D02*
X191337Y74277D01*
Y75589D01*
X190681Y76245D01*
X190025D01*
X189369Y75589D01*
Y74933D01*
Y75589D01*
X188714Y76245D01*
X188057D01*
X187402Y75589D01*
Y74277D01*
X188057Y73621D01*
X191337Y80180D02*
Y77557D01*
X189369D01*
X190025Y78868D01*
Y79524D01*
X189369Y80180D01*
X188057D01*
X187402Y79524D01*
Y78212D01*
X188057Y77557D01*
X182283Y67716D02*
X185432D01*
Y69291D01*
X184907Y69816D01*
X183858D01*
X183333Y69291D01*
Y67716D01*
Y68766D02*
X182283Y69816D01*
X184907Y70865D02*
X185432Y71390D01*
Y72439D01*
X184907Y72964D01*
X184382D01*
X183858Y72439D01*
Y71915D01*
Y72439D01*
X183333Y72964D01*
X182808D01*
X182283Y72439D01*
Y71390D01*
X182808Y70865D01*
X185432Y74014D02*
Y76113D01*
X184907D01*
X182808Y74014D01*
X182283D01*
X176772Y66929D02*
X180707D01*
Y68897D01*
X180051Y69553D01*
X178740D01*
X178084Y68897D01*
Y66929D01*
Y68241D02*
X176772Y69553D01*
Y72833D02*
X180707D01*
X178740Y70865D01*
Y73489D01*
X176772Y74801D02*
Y76113D01*
Y75457D01*
X180707D01*
X180051Y74801D01*
M02*
