M48
;Layer_Color=9474304
;FILE_FORMAT=2:5
INCH,LZ
;TYPE=PLATED
T1F00S00C0.01378
T2F00S00C0.01772
T3F00S00C0.01968
T4F00S00C0.02756
T5F00S00C0.03543
T6F00S00C0.03700
T7F00S00C0.03937
T8F00S00C0.04724
T9F00S00C0.05906
T10F00S00C0.12008
T11F00S00C0.14016
%
T01
X016811Y0362008
Y0367914
X0174409
Y0362008
T02
X0262992Y0045276
X0259842Y0070079
X0183858Y0079528
X017874
X016811Y0080315
X014252Y0066535
X0133071Y0066929
X0122441Y0065748
X0113386Y0020472
X0116142Y0113386
Y0118898
X0122047Y0132283
X0137008Y0132874
X0135433Y0126378
X0139764Y011811
X0138976Y0111417
X0153213Y0118961
X0156693Y0122441
X015748Y0114961
X016063Y0107874
X0167717
X0174015Y0107874
X0178376Y0107874
X0179528Y0094095
X0183858
X0188583
X01937Y0090157
X0198425Y0090158
X0194488Y0084252
X0174472Y009252
X0172678Y009685
X0167717Y0093701
X016063Y0093307
X0156299Y0084645
X0174016Y0120866
X0169291Y0156299
X0180315Y0162598
Y016811
X0181889Y0183464
X0175984
X0165354Y0182677
X0174409Y0194488
Y0207874
X0200787Y0204724
X0196752Y0195277
X0205512Y0195276
X0209055Y0164567
Y0158267
X0209055Y0146457
X0209055Y0135039
X0225197Y0118898
Y0113386
X0232445Y0120142
X0239405
X0242885Y0123622
X0235925
X0232087Y0145669
X0229134Y0153937
X024252
X0241339Y0175984
X0244882Y0182283
X0249213Y018937
X0231496Y018189
X0228346Y0175984
X0231496Y0170079
X0154724Y0194488
X0144488Y0194488
X0138583Y0213386
X0125197Y0214173
X0119685
X0116929Y0175984
X0109055Y0170079
Y0157087
X0105905Y0148425
X0100394
X0115748Y0146063
Y0151575
X0120866Y0166142
X0138189Y0157087
X0133464Y0148425
X0137008Y0141831
X0141634Y0136909
X0146457Y0148425
X0253543Y0133071
X0258268Y0130709
X025748Y0164961
X0295276Y0205906
X0279528Y0226772
X0359055Y0229528
X0357874Y0186221
X0393307Y0166929
Y0209842
X0311024Y0087402
X0412992Y0166142
X0412598Y0207874
X0387402Y0259055
X0291732
Y0323228
X0287008Y0372342
X027441Y0362205
X0269685Y035748
X0264961Y0361811
X0318504Y0372342
X0238976Y038937
X0184646Y0341339
X016063Y0353543
X0116535Y034252
Y0336614
X0121654Y0332283
X0123228Y0320079
X0116929
X0113386Y0325591
X0132283Y0272047
Y0266535
X0144488Y0264567
X0129134Y0244882
X0122441Y0391437
X0015Y0309
X0042126Y0548032
X0116142Y0544882
Y0529528
X0112205Y0506298
X0127165Y0510236
X0137795Y0486614
X0121653Y0477559
X0123228Y0444882
X0117717
X0143701Y0441732
X0148819Y0437402
X0165748Y043937
Y0429921
X0190551Y0434252
X0201575Y0429528
X02Y0405512
X0206693Y0401181
X0224016Y0405118
X0225163Y0413416
X0217323Y0413779
X0235433Y0442126
X0237008Y0454331
X0239764Y0466831
X0224803Y0486221
X0220374Y0489075
X0216929Y0482282
X0208661Y0486221
X0202756Y0482283
X0201575Y0497244
Y0502756
X0207961Y0508749
X0211024Y0511811
X0208071Y0522047
X0200641
X0199212Y0545668
X0218134Y0541173
X0164173Y0548819
X014685Y0545275
Y0529528
X0157087Y046063
X0184252Y0460236
Y0465748
X0203543
Y0460236
X0209055Y0472046
X0118405Y0398031
X0112409Y0398031
X0287008Y0435335
Y0498327
X0318504
X0334252Y0529823
X0365748
X0397244
Y0466831
X0381496Y0435335
X0385433Y0408661
X0397244Y0403839
X0365748
X0302756Y0529823
X0255512Y0498327
X0287008Y0561319
X0318504
X035
X0381496
X0397244Y0592815
X0365748
X0178346Y0583857
X0172441Y0583858
X014685Y0572835
X014685Y0559055
X0116142Y0559055
Y0572835
T03
X0272441Y0045276
Y0055118
X0267717Y0064567
X0277599Y0064527
X0287598Y0064764
X0297599Y0064528
X030748Y0064567
X0312205Y0055118
X0302756
X0287795Y0044882
X0292126Y0035433
X0283071
X0315354Y0038583
X0320472Y0033071
X0315748Y0027953
X025748Y0064567
X0247599Y0064528
X0237598Y006437
X0227559Y0064567
X0217599Y0064449
X0207598Y0064449
X0197638Y0064567
X0187599Y006437
X0192519Y0055118
X0183071Y0046063
X0167717Y0044882
X0162992Y0035433
X0167717Y0025984
X018189Y0025591
X0187795
X0197638
X020748
X0217717
X0227559
X0237795
X0247638Y0025984
X0242913Y0035433
X0232283Y0055118
X0222835
X0157874Y006496
X0147638Y0064567
Y0044882
X0142913Y0035433
X0147638Y0025984
X0117716Y0045669
X0135433Y0166535
Y0172835
X015Y0174803
X0244882Y0230709
X025748Y0223228
X0295276Y019252
X0322046Y0186613
X0341732Y0192913
Y0179134
X0339764Y015748
X0354331
Y0137795
X0339764
X033937Y0114173
Y0098425
X0333858Y0102756
X0323622Y0097382
Y0092382
X0347987Y0092958
X0375984Y0098425
Y0114173
X0398031Y0132283
X0397638Y0162992
X0387707Y0166929
Y0209449
X0341338Y0208268
X0341339Y0220866
X0322046Y0214172
X0308312Y0112161
X0302712Y0112161
X0418504Y0166142
X041811Y0207874
X0219685Y0388189
X0207087
X015748Y0392126
X0153543Y0385039
X0156299Y034252
X015315Y0336221
X0156693Y0330709
X015315Y0324803
X0098819Y0356693
X0087795Y0466929
X0087402Y0479921
X0042126Y0514961
X0161024Y0488189
X0167323Y0486221
X0167323Y0479921
Y0472441
Y0465354
X0161417Y0465354
X0167323Y049252
X0237921Y0500079
X0217717Y0444488
X0211811Y044685
X020315Y0447638
X019685Y0443701
X0213386Y0430315
Y0424016
X0219685
Y0430315
X019965Y0415005
X0185039Y0420472
X0153543Y0399213
X0224016Y0398425
X0227953Y0401575
X0309055Y0429134
T04
X0152362Y0409449
T05
X0411417Y0053543
Y0061417
Y0069291
Y0077165
X0403543
Y0069291
Y0061417
Y0053543
Y0085039
Y0092914
Y0100787
X0411417
Y0092914
Y0085039
T06
X0375984Y0036457
Y0046457
Y0056457
X0387795
Y0046457
Y0036457
X038689Y0068504
X037689
X0221969Y026311
X0211968
X0201969
X0191969
X0181968
Y027311
X0191969
X0201969
X0211968
X0221969
X0164449Y0272717
Y0262717
X0154449
Y0272717
T07
X0346457Y0295276
Y0305276
Y0315276
Y0325276
X0273622Y046063
Y047063
Y048063
Y0566929
Y0576929
Y0586929
T08
X0151573Y0288979
Y0308664
X0081495
Y0288979
X0051181Y0340551
X0061023Y0350394
X0051181Y0370079
X0061023Y0389764
X0011811Y0379921
Y0360236
X0051181Y0399606
Y0431102
X0061023Y0440945
X0051181Y046063
X0061023Y0480315
X0051181Y0490158
X0011811Y0470472
Y0450788
T09
X0343701Y0379134
X035622Y0374134
X0368701Y0379134
X038122Y0374134
X0393701Y0379134
X0406197Y0374134
X0083464Y0529528
X0070945Y0534527
X0058464Y0529528
X0045945Y0534527
X0033465Y0529528
X0020968Y0534527
X0009646Y0539528
X0343701Y0536614
X035622Y0531614
X0368701Y0536614
X038122Y0531614
X0393701Y0536614
X0406197Y0531614
Y0502874
X0393701Y0507874
X038122Y0502874
X0368701Y0507874
X035622Y0502874
X0343701Y0507874
Y0457874
X035622Y0452874
X0368701Y0457874
X038122Y0452874
X0393701Y0457874
X0406197Y0452874
Y0424134
X0393701Y0429134
X038122Y0424134
X0368701Y0429134
X035622Y0424134
X0343701Y0429134
X041752Y0419134
Y0497874
Y0576614
X0406197Y0581614
X0393701Y0586614
X038122Y0581614
X0368701Y0586614
X035622Y0581614
X0343701Y0586614
X0083464Y0579528
X0070945Y0584527
X0058464Y0579528
X0045945Y0584527
X0033465Y0579528
X0020968Y0584527
T10
X0043307Y0262598
X0030512Y0281496
T11
X0055118Y0281496
M30
