G04 Layer_Color=65535*
%FSLAX25Y25*%
%MOIN*%
G70*
G01*
G75*
%ADD47C,0.00787*%
%ADD52C,0.02362*%
%ADD54C,0.01000*%
%ADD100C,0.00984*%
%ADD101C,0.00827*%
%ADD102C,0.00591*%
%ADD103C,0.01378*%
%ADD104C,0.00800*%
%ADD105C,0.00394*%
%ADD106C,0.00709*%
D47*
X124330Y239152D02*
G03*
X124330Y239152I-1595J0D01*
G01*
X304448Y194270D02*
G03*
X304448Y194270I-1595J0D01*
G01*
X96457Y125098D02*
G03*
X96457Y125098I-632J0D01*
G01*
X397481Y218996D02*
G03*
X397481Y218996I-1595J0D01*
G01*
Y176870D02*
G03*
X397481Y176870I-1595J0D01*
G01*
X339764Y45276D02*
G03*
X339764Y45276I-12992J0D01*
G01*
Y238189D02*
G03*
X339764Y238189I-12992J0D01*
G01*
X111417D02*
G03*
X111417Y238189I-12992J0D01*
G01*
Y45276D02*
G03*
X111417Y45276I-12992J0D01*
G01*
X126705Y73228D02*
X131626D01*
X153543Y90847D02*
Y95768D01*
X119587Y73228D02*
X124508D01*
X134941Y73228D02*
X139862D01*
X247539Y72835D02*
X252461D01*
X131890Y185039D02*
X210630D01*
X131890Y106299D02*
Y185039D01*
Y106299D02*
X206496D01*
X210630Y110433D01*
Y185039D01*
X396654Y118504D02*
X418307D01*
Y35827D02*
Y118504D01*
X396654Y35827D02*
X418307D01*
X396654D02*
Y118504D01*
X399606Y73228D02*
Y81102D01*
X397047Y102756D02*
X399606Y100787D01*
X397047Y98819D02*
X399606Y100787D01*
X397047Y81102D02*
X399606D01*
X397047Y73228D02*
X399606D01*
X64173Y354331D02*
Y385827D01*
X1969Y330709D02*
X64173D01*
X5118Y331102D02*
Y409449D01*
X1969Y330709D02*
Y409449D01*
X64173D01*
X5118Y405512D02*
X64173D01*
X5118Y334252D02*
X64173D01*
X64173Y330709D02*
Y346457D01*
X64173Y393701D02*
Y409449D01*
Y444882D02*
Y476378D01*
X1969Y421260D02*
X64173D01*
X5118Y421654D02*
Y500000D01*
X1969Y421260D02*
Y500000D01*
X64173D01*
X5118Y496063D02*
X64173D01*
X5118Y424803D02*
X64173D01*
X64173Y421260D02*
Y437008D01*
X64173Y484252D02*
Y500000D01*
X305512Y105413D02*
Y110335D01*
X187401Y375886D02*
Y380807D01*
X200459Y392589D02*
Y400339D01*
X160959D02*
X200459D01*
X160959Y382339D02*
Y400339D01*
Y382339D02*
X200459D01*
Y390089D01*
X201709Y391339D01*
X200459Y392589D02*
X201709Y391339D01*
X169882Y322736D02*
Y329232D01*
X171850Y322736D02*
Y329232D01*
X169390Y334646D02*
Y344882D01*
X172343Y334646D02*
Y344882D01*
X157087Y476772D02*
X162599D01*
X152756Y438976D02*
Y444488D01*
X152756Y445669D02*
Y451181D01*
X137008Y445669D02*
Y451181D01*
X126870Y334252D02*
Y344488D01*
X129823Y334252D02*
Y344488D01*
X103150Y142027D02*
Y146949D01*
X195669Y91634D02*
Y96555D01*
X110531Y164370D02*
X117028D01*
X110531Y162402D02*
X117028D01*
X117618Y116142D02*
X122539D01*
X118405Y173228D02*
X123327D01*
X118405Y158268D02*
X123327D01*
X231693Y150689D02*
Y157185D01*
X229725Y150689D02*
Y157185D01*
X224803Y167618D02*
Y172539D01*
X225590Y140847D02*
Y145768D01*
X218799Y116142D02*
X223721D01*
X225590Y145571D02*
Y150492D01*
X224803Y179429D02*
Y184351D01*
X117224Y148819D02*
X122146D01*
X116437Y269291D02*
X121358D01*
X121161D02*
X126083D01*
X125886D02*
X130807D01*
X148097Y392589D02*
Y400339D01*
X108597D02*
X148097D01*
X108597Y382339D02*
Y400339D01*
Y382339D02*
X148097D01*
Y390089D01*
X149346Y391339D01*
X148097Y392589D02*
X149346Y391339D01*
X174016Y414862D02*
Y419784D01*
X202756Y406988D02*
Y411909D01*
X199114Y423228D02*
X204035D01*
X390551Y168799D02*
Y173721D01*
X415748Y168012D02*
Y172933D01*
X390551Y211319D02*
Y216240D01*
X415354Y209744D02*
Y214665D01*
X292815Y199213D02*
X297736D01*
X96063Y358563D02*
Y363484D01*
X193701Y349606D02*
Y370078D01*
X193209Y349606D02*
X193701D01*
X193209Y370078D02*
X193701D01*
X183465Y349606D02*
X183957D01*
X183465Y370078D02*
X183957D01*
X183465Y349606D02*
Y370078D01*
X357480Y107480D02*
X369882D01*
X357480Y120866D02*
X370866D01*
X369882Y107480D02*
X370522Y108120D01*
X357480Y107480D02*
Y108071D01*
X370866Y120275D02*
Y120866D01*
X357480Y120275D02*
Y120866D01*
Y91732D02*
X369882D01*
X357480Y105118D02*
X370866D01*
X369882Y91732D02*
X370522Y92372D01*
X357480Y91732D02*
Y92323D01*
X370866Y104527D02*
Y105118D01*
X357480Y104527D02*
Y105118D01*
X97835Y467913D02*
Y479331D01*
X91142Y467913D02*
Y479331D01*
X97047D02*
X97835D01*
X91142D02*
X91929D01*
X97047Y467913D02*
X97835D01*
X91142D02*
X91929D01*
X91142Y471654D02*
X97835D01*
X118111Y330709D02*
X138583D01*
Y330217D02*
Y330709D01*
X118111Y330217D02*
Y330709D01*
X138583Y320472D02*
Y320964D01*
X118111Y320472D02*
Y320964D01*
Y320472D02*
X138583D01*
X267323Y406693D02*
X287795D01*
Y406201D02*
Y406693D01*
X267323Y406201D02*
Y406693D01*
X287795Y396457D02*
Y396949D01*
X267323Y396457D02*
Y396949D01*
Y396457D02*
X287795D01*
X267323Y392913D02*
X287795D01*
Y392421D02*
Y392913D01*
X267323Y392421D02*
Y392913D01*
X287795Y382677D02*
Y383169D01*
X267323Y382677D02*
Y383169D01*
Y382677D02*
X287795D01*
X267323Y434252D02*
X287795D01*
Y433760D02*
Y434252D01*
X267323Y433760D02*
Y434252D01*
X287795Y424016D02*
Y424508D01*
X267323Y424016D02*
Y424508D01*
Y424016D02*
X287795D01*
X267323Y420472D02*
X287795D01*
Y419980D02*
Y420472D01*
X267323Y419980D02*
Y420472D01*
X287795Y410236D02*
Y410728D01*
X267323Y410236D02*
Y410728D01*
Y410236D02*
X287795D01*
X121654Y524410D02*
X142125D01*
X121654D02*
Y524902D01*
X142125Y524410D02*
Y524902D01*
X121654Y534154D02*
Y534646D01*
X142125Y534154D02*
Y534646D01*
X121654D02*
X142125D01*
X121654Y553937D02*
X142125D01*
X121654D02*
Y554429D01*
X142125Y553937D02*
Y554429D01*
X121654Y563681D02*
Y564173D01*
X142125Y563681D02*
Y564173D01*
X121654D02*
X142125D01*
X121654Y540158D02*
X142125D01*
X121654D02*
Y540650D01*
X142125Y540158D02*
Y540650D01*
X121654Y549902D02*
Y550394D01*
X142125Y549902D02*
Y550394D01*
X121654D02*
X142125D01*
X121653Y567717D02*
X142125D01*
X121653D02*
Y568209D01*
X142125Y567717D02*
Y568209D01*
X121653Y577461D02*
Y577953D01*
X142125Y577461D02*
Y577953D01*
X121653D02*
X142125D01*
X70534Y310321D02*
X76081D01*
X70534Y287321D02*
Y310321D01*
Y287321D02*
X76081D01*
X87006Y310337D02*
X146062D01*
X87006Y287306D02*
X145963D01*
X157085Y310321D02*
X162534D01*
Y287321D02*
Y310321D01*
X157085Y287321D02*
X162534D01*
X161417Y431890D02*
Y437402D01*
X266929Y366142D02*
X272441D01*
X217051Y551311D02*
X218429D01*
X217051Y539697D02*
Y551311D01*
Y539697D02*
X218429D01*
Y551311D01*
X331102Y84547D02*
Y89468D01*
X331102Y90059D02*
Y94980D01*
Y95571D02*
Y100492D01*
X182283Y400886D02*
Y405807D01*
X172441Y400886D02*
Y405807D01*
X147638Y486909D02*
Y491831D01*
X117225Y139370D02*
X122146D01*
X346457Y111713D02*
Y116634D01*
Y95964D02*
Y100886D01*
Y135335D02*
Y140256D01*
Y155020D02*
Y159941D01*
X92027Y443701D02*
X96949D01*
X122736Y220472D02*
X127657D01*
X117224D02*
X122146D01*
X113681Y238583D02*
X118602D01*
X136122Y207087D02*
X141043D01*
X136122Y219685D02*
X141043D01*
X364173Y183760D02*
Y188681D01*
X365354Y227067D02*
Y231988D01*
X301181Y385335D02*
Y390256D01*
Y399114D02*
Y404036D01*
Y412894D02*
Y417815D01*
X226772Y406595D02*
Y411516D01*
X229134Y439665D02*
Y444587D01*
X196850Y431791D02*
Y436713D01*
X301181Y426673D02*
Y431595D01*
X202681Y545504D02*
X207602D01*
X108268Y556595D02*
Y561516D01*
Y527067D02*
Y531988D01*
X108661Y570374D02*
Y575295D01*
X108268Y542815D02*
Y547736D01*
X89272Y340551D02*
X94193D01*
X334646Y176673D02*
Y181595D01*
Y190453D02*
Y195374D01*
X334646Y205807D02*
Y210728D01*
Y218406D02*
Y223327D01*
X120077Y236416D02*
X146061D01*
Y254133D01*
X120077D02*
X146061D01*
X120077Y236416D02*
Y254133D01*
X94390Y364272D02*
X98524D01*
Y375886D01*
X94390D02*
X98524D01*
X94390Y364272D02*
Y375886D01*
X300195Y191534D02*
X320274D01*
Y209250D01*
X300195D02*
X320274D01*
X300195Y191534D02*
Y209250D01*
X105020Y139370D02*
X106791D01*
X105020Y126772D02*
X106791D01*
X96063D02*
Y139370D01*
X115748Y126772D02*
Y139370D01*
X174409Y407087D02*
Y412599D01*
X219193Y467717D02*
X224114D01*
X213386Y466535D02*
X218898D01*
X367618Y322736D02*
Y325197D01*
Y337992D02*
Y346358D01*
X384843D02*
X408957D01*
X367618D02*
X371555D01*
X420276D02*
X434055D01*
X367618Y322736D02*
X401575D01*
X423228D02*
X434055D01*
Y322835D02*
Y346358D01*
X367618Y271555D02*
Y274016D01*
Y286811D02*
Y295177D01*
X384843D02*
X408957D01*
X367618D02*
X371555D01*
X420276D02*
X434055D01*
X367618Y271555D02*
X401575D01*
X423228D02*
X434055D01*
Y271654D02*
Y295177D01*
X398622Y216338D02*
Y236417D01*
X380906D02*
X398622D01*
X380906Y216338D02*
Y236417D01*
Y216338D02*
X398622D01*
Y174213D02*
Y194291D01*
X380906D02*
X398622D01*
X380906Y174213D02*
Y194291D01*
Y174213D02*
X398622D01*
X230906Y172736D02*
Y179232D01*
X228937Y172736D02*
Y179232D01*
X88090Y387008D02*
X93012D01*
X194882Y381102D02*
X200492D01*
X193701Y379921D02*
X194882Y381102D01*
X224803Y437008D02*
X226378Y435433D01*
X206693D02*
X208268Y437008D01*
X206693Y418898D02*
X208268Y417323D01*
X224606D02*
X226378Y419095D01*
X164567Y476772D02*
X169291D01*
X213882Y513764D02*
Y534236D01*
X214374D01*
X213882Y513764D02*
X214374D01*
X223626Y534236D02*
X224118D01*
X223626Y513764D02*
X224118D01*
Y534236D01*
D52*
X206299Y111811D02*
G03*
X206299Y111811I-1181J0D01*
G01*
D54*
X215599Y552516D02*
G03*
X215599Y552516I-418J0D01*
G01*
X100319Y362771D02*
G03*
X100319Y362771I-418J0D01*
G01*
X1024Y263779D02*
X58110D01*
X1083Y299213D02*
X58071D01*
X1024Y263779D02*
Y299213D01*
X58110Y263779D02*
Y299213D01*
X368110Y130905D02*
X391732D01*
Y144685D01*
X368110D02*
X391732D01*
X368110Y130905D02*
Y144685D01*
Y150591D02*
X391732D01*
Y164370D01*
X368110D02*
X391732D01*
X368110Y150591D02*
Y164370D01*
X287402Y508858D02*
Y538386D01*
X228346D02*
X287402D01*
X228346Y508858D02*
Y538386D01*
Y508858D02*
X287402D01*
X161591Y390089D02*
Y385090D01*
X162591Y384091D01*
X164590D01*
X165590Y385090D01*
Y390089D01*
X167589Y389089D02*
X168589Y390089D01*
X170588D01*
X171588Y389089D01*
Y388089D01*
X170588Y387090D01*
X169588D01*
X170588D01*
X171588Y386090D01*
Y385090D01*
X170588Y384091D01*
X168589D01*
X167589Y385090D01*
X206002Y517000D02*
X212000D01*
Y519999D01*
X211000Y520999D01*
X207002D01*
X206002Y519999D01*
Y517000D01*
X212000Y522998D02*
Y524997D01*
Y523998D01*
X206002D01*
X207002Y522998D01*
X206002Y527996D02*
Y531995D01*
X207002D01*
X211000Y527996D01*
X212000D01*
X0Y250000D02*
X17717D01*
X0D02*
Y614173D01*
X25591D01*
Y622047D01*
Y629921D01*
X86614Y0D02*
X399606D01*
X86614D02*
Y250000D01*
X17717D02*
X86614D01*
X25591Y629921D02*
X399606D01*
Y614173D02*
Y629921D01*
X425197Y15748D02*
Y614173D01*
X399606D02*
X425197D01*
X399606Y13780D02*
Y15748D01*
X425197D01*
X399606Y0D02*
Y13780D01*
D100*
X182579Y373130D02*
G03*
X182579Y373130I-689J0D01*
G01*
X215059Y102362D02*
G03*
X215059Y102362I-492J0D01*
G01*
X298425Y105512D02*
G03*
X298425Y105512I-689J0D01*
G01*
X135335Y461516D02*
G03*
X135335Y461516I-689J0D01*
G01*
X139665Y373130D02*
G03*
X139665Y373130I-689J0D01*
G01*
X229823Y418307D02*
G03*
X229823Y418307I-492J0D01*
G01*
D101*
X5708Y318740D02*
G03*
X5708Y312756I2559J-2992D01*
G01*
D102*
X366197Y114173D02*
G03*
X366197Y114173I-2024J0D01*
G01*
X366197Y98425D02*
G03*
X366197Y98425I-2024J0D01*
G01*
D103*
X118975Y231023D02*
G03*
X118975Y231023I-472J0D01*
G01*
X300274Y186632D02*
G03*
X300274Y186632I-472J0D01*
G01*
X403996Y215945D02*
G03*
X403996Y215945I-472J0D01*
G01*
Y173819D02*
G03*
X403996Y173819I-472J0D01*
G01*
D104*
X161339Y370965D02*
X181024D01*
Y358957D02*
Y370965D01*
X161339Y358957D02*
X181024D01*
X161339D02*
Y370965D01*
X161516Y368996D02*
X180807D01*
X370984Y61457D02*
X380984D01*
Y31457D02*
Y61457D01*
X370984Y31457D02*
X380984D01*
X370984D02*
Y61457D01*
X382795D02*
X392795D01*
Y31457D02*
Y61457D01*
X382795Y31457D02*
X392795D01*
X382795D02*
Y61457D01*
X371890Y63504D02*
X391890D01*
Y73504D01*
X371890D02*
X391890D01*
X371890Y63504D02*
Y73504D01*
X149449Y257717D02*
X169449D01*
Y277717D01*
X149449D02*
X169449D01*
X149449Y257717D02*
Y277717D01*
X301870Y85138D02*
Y104429D01*
X299902Y84961D02*
X311909D01*
Y104646D01*
X299902D02*
X311909D01*
X299902Y84961D02*
Y104646D01*
X135728Y465650D02*
X155020D01*
X155197Y463681D02*
Y475689D01*
X135512D02*
X155197D01*
X135512Y463681D02*
Y475689D01*
Y463681D02*
X155197D01*
X118603Y368996D02*
X137894D01*
X118425Y358957D02*
Y370965D01*
Y358957D02*
X138110D01*
Y370965D01*
X118425D02*
X138110D01*
X176969Y278110D02*
X226969D01*
Y258110D02*
Y278110D01*
X176969Y258110D02*
X226969D01*
X176969D02*
Y278110D01*
D105*
X195472Y331102D02*
Y380315D01*
X244685D01*
Y331102D02*
Y380315D01*
X195472Y331102D02*
X244685D01*
X418110Y230315D02*
X424026D01*
X418110Y218504D02*
Y230315D01*
Y218504D02*
X424026D01*
Y230315D01*
X418504Y188583D02*
X424420D01*
X418504Y176771D02*
Y188583D01*
Y176771D02*
X424420D01*
Y188583D01*
X1969Y524410D02*
Y539370D01*
Y524410D02*
X98534D01*
Y591373D01*
X1969D02*
X98534D01*
X1969Y586614D02*
Y591373D01*
X-31890Y586614D02*
X1969D01*
X-31890Y539370D02*
Y586614D01*
Y539370D02*
X1969D01*
X425197Y498032D02*
Y512992D01*
X328631D02*
X425197D01*
X328631Y446028D02*
Y512992D01*
Y446028D02*
X425197D01*
Y450787D01*
X459055D01*
Y498032D01*
X425197D02*
X459055D01*
X425197Y576772D02*
Y591732D01*
X328631D02*
X425197D01*
X328631Y524768D02*
Y591732D01*
Y524768D02*
X425197D01*
Y529528D01*
X459055D01*
Y576772D01*
X425197D02*
X459055D01*
X425197Y419291D02*
Y434252D01*
X328631D02*
X425197D01*
X328631Y367288D02*
Y434252D01*
Y367288D02*
X425197D01*
Y372047D01*
X459055D01*
Y419291D01*
X425197D02*
X459055D01*
X224410Y456693D02*
X236221D01*
Y468504D01*
X224410D02*
X236221D01*
X224410Y456693D02*
Y468504D01*
D106*
X200787Y444093D02*
Y440813D01*
X201443Y440158D01*
X202755D01*
X203411Y440813D01*
Y444093D01*
X204723Y440158D02*
X206035D01*
X205379D01*
Y444093D01*
X204723Y443437D01*
X210627Y440158D02*
X208003D01*
X210627Y442781D01*
Y443437D01*
X209971Y444093D01*
X208659D01*
X208003Y443437D01*
X237795Y405707D02*
Y401772D01*
X240419D01*
X241731D02*
X243043D01*
X242387D01*
Y405707D01*
X241731Y405051D01*
X237796Y468110D02*
X241076D01*
X241732Y468766D01*
Y470078D01*
X241076Y470734D01*
X237796D01*
X241732Y472046D02*
Y473358D01*
Y472702D01*
X237796D01*
X238453Y472046D01*
X241732Y475326D02*
Y476638D01*
Y475982D01*
X237796D01*
X238453Y475326D01*
X208138Y460498D02*
X207482Y459842D01*
Y458530D01*
X208138Y457874D01*
X210761D01*
X211417Y458530D01*
Y459842D01*
X210761Y460498D01*
X207482Y464434D02*
Y461810D01*
X209450D01*
X208793Y463122D01*
Y463778D01*
X209450Y464434D01*
X210761D01*
X211417Y463778D01*
Y462466D01*
X210761Y461810D01*
X211417Y468369D02*
Y465745D01*
X208793Y468369D01*
X208138D01*
X207482Y467713D01*
Y466401D01*
X208138Y465745D01*
X220736Y476246D02*
X220080Y475590D01*
Y474278D01*
X220736Y473622D01*
X223360D01*
X224016Y474278D01*
Y475590D01*
X223360Y476246D01*
X220080Y480182D02*
Y477558D01*
X222048D01*
X221392Y478870D01*
Y479526D01*
X222048Y480182D01*
X223360D01*
X224016Y479526D01*
Y478214D01*
X223360Y477558D01*
X224016Y481494D02*
Y482805D01*
Y482150D01*
X220080D01*
X220736Y481494D01*
X186088Y411548D02*
X185432Y412204D01*
X184121D01*
X183465Y411548D01*
Y408924D01*
X184121Y408268D01*
X185432D01*
X186088Y408924D01*
X189368Y408268D02*
Y412204D01*
X187400Y410236D01*
X190024D01*
X191336Y411548D02*
X191992Y412204D01*
X193304D01*
X193960Y411548D01*
Y410891D01*
X193304Y410236D01*
X192648D01*
X193304D01*
X193960Y409580D01*
Y408924D01*
X193304Y408268D01*
X191992D01*
X191336Y408924D01*
X98425Y123227D02*
Y122571D01*
X99737Y121259D01*
X101049Y122571D01*
Y123227D01*
X99737Y121259D02*
Y119291D01*
X102361D02*
X103673D01*
X103017D01*
Y123227D01*
X102361Y122571D01*
X322442Y195276D02*
X325722D01*
X326378Y195931D01*
Y197243D01*
X325722Y197899D01*
X322442D01*
X326378Y199211D02*
Y200523D01*
Y199867D01*
X322442D01*
X323098Y199211D01*
Y202491D02*
X322442Y203147D01*
Y204459D01*
X323098Y205115D01*
X323754D01*
X324410Y204459D01*
X325066Y205115D01*
X325722D01*
X326378Y204459D01*
Y203147D01*
X325722Y202491D01*
X325066D01*
X324410Y203147D01*
X323754Y202491D01*
X323098D01*
X324410Y203147D02*
Y204459D01*
X385433Y242518D02*
Y239239D01*
X386089Y238583D01*
X387401D01*
X388057Y239239D01*
Y242518D01*
X389369Y238583D02*
X390681D01*
X390025D01*
Y242518D01*
X389369Y241863D01*
X392649Y242518D02*
X395272D01*
Y241863D01*
X392649Y239239D01*
Y238583D01*
X385039Y199999D02*
Y196719D01*
X385695Y196063D01*
X387007D01*
X387663Y196719D01*
Y199999D01*
X388975Y196063D02*
X390287D01*
X389631D01*
Y199999D01*
X388975Y199343D01*
X394879Y199999D02*
X393567Y199343D01*
X392255Y198031D01*
Y196719D01*
X392911Y196063D01*
X394223D01*
X394879Y196719D01*
Y197375D01*
X394223Y198031D01*
X392255D01*
X83072Y365354D02*
X86352D01*
X87008Y366010D01*
Y367322D01*
X86352Y367978D01*
X83072D01*
X87008Y369290D02*
Y370602D01*
Y369946D01*
X83072D01*
X83728Y369290D01*
Y372570D02*
X83072Y373226D01*
Y374538D01*
X83728Y375194D01*
X86352D01*
X87008Y374538D01*
Y373226D01*
X86352Y372570D01*
X83728D01*
X148031Y246849D02*
Y243569D01*
X148688Y242913D01*
X149999D01*
X150655Y243569D01*
Y246849D01*
X151967Y243569D02*
X152623Y242913D01*
X153935D01*
X154591Y243569D01*
Y246193D01*
X153935Y246849D01*
X152623D01*
X151967Y246193D01*
Y245537D01*
X152623Y244881D01*
X154591D01*
X109449Y366534D02*
Y363254D01*
X110105Y362598D01*
X111417D01*
X112073Y363254D01*
Y366534D01*
X113385Y365878D02*
X114041Y366534D01*
X115352D01*
X116008Y365878D01*
Y365222D01*
X115352Y364566D01*
X116008Y363910D01*
Y363254D01*
X115352Y362598D01*
X114041D01*
X113385Y363254D01*
Y363910D01*
X114041Y364566D01*
X113385Y365222D01*
Y365878D01*
X114041Y364566D02*
X115352D01*
X126378Y472440D02*
Y469160D01*
X127034Y468504D01*
X128346D01*
X129002Y469160D01*
Y472440D01*
X132282Y468504D02*
Y472440D01*
X130314Y470472D01*
X132938D01*
X303150Y81889D02*
Y78609D01*
X303806Y77953D01*
X305118D01*
X305773Y78609D01*
Y81889D01*
X309709Y77953D02*
X307085D01*
X309709Y80577D01*
Y81233D01*
X309053Y81889D01*
X307741D01*
X307085Y81233D01*
X370734Y170209D02*
X370078Y170865D01*
X368766D01*
X368110Y170209D01*
Y169553D01*
X368766Y168897D01*
X370078D01*
X370734Y168241D01*
Y167585D01*
X370078Y166929D01*
X368766D01*
X368110Y167585D01*
X372046Y170865D02*
Y166929D01*
X373358Y168241D01*
X374670Y166929D01*
Y170865D01*
X378606Y166929D02*
X375982D01*
X378606Y169553D01*
Y170209D01*
X377950Y170865D01*
X376638D01*
X375982Y170209D01*
X385695Y128083D02*
X385039Y128739D01*
X383727D01*
X383071Y128083D01*
Y127427D01*
X383727Y126771D01*
X385039D01*
X385695Y126115D01*
Y125459D01*
X385039Y124803D01*
X383727D01*
X383071Y125459D01*
X387007Y128739D02*
Y124803D01*
X388318Y126115D01*
X389630Y124803D01*
Y128739D01*
X390942Y124803D02*
X392254D01*
X391598D01*
Y128739D01*
X390942Y128083D01*
X345276Y218898D02*
Y222833D01*
X347243D01*
X347899Y222177D01*
Y220866D01*
X347243Y220210D01*
X345276D01*
X346587D02*
X347899Y218898D01*
X351835Y222833D02*
X350523Y222177D01*
X349211Y220866D01*
Y219554D01*
X349867Y218898D01*
X351179D01*
X351835Y219554D01*
Y220210D01*
X351179Y220866D01*
X349211D01*
X353147Y222177D02*
X353803Y222833D01*
X355115D01*
X355771Y222177D01*
Y221521D01*
X355115Y220866D01*
X354459D01*
X355115D01*
X355771Y220210D01*
Y219554D01*
X355115Y218898D01*
X353803D01*
X353147Y219554D01*
X345276Y206693D02*
Y210629D01*
X347243D01*
X347899Y209973D01*
Y208661D01*
X347243Y208005D01*
X345276D01*
X346587D02*
X347899Y206693D01*
X351835Y210629D02*
X350523Y209973D01*
X349211Y208661D01*
Y207349D01*
X349867Y206693D01*
X351179D01*
X351835Y207349D01*
Y208005D01*
X351179Y208661D01*
X349211D01*
X355771Y206693D02*
X353147D01*
X355771Y209317D01*
Y209973D01*
X355115Y210629D01*
X353803D01*
X353147Y209973D01*
X330315Y197244D02*
Y201180D01*
X332283D01*
X332939Y200524D01*
Y199212D01*
X332283Y198556D01*
X330315D01*
X331627D02*
X332939Y197244D01*
X336875Y201180D02*
X335563Y200524D01*
X334251Y199212D01*
Y197900D01*
X334907Y197244D01*
X336219D01*
X336875Y197900D01*
Y198556D01*
X336219Y199212D01*
X334251D01*
X338187Y197244D02*
X339498D01*
X338842D01*
Y201180D01*
X338187Y200524D01*
X329921Y183465D02*
Y187400D01*
X331889D01*
X332545Y186744D01*
Y185432D01*
X331889Y184776D01*
X329921D01*
X331233D02*
X332545Y183465D01*
X336481Y187400D02*
X335169Y186744D01*
X333857Y185432D01*
Y184121D01*
X334513Y183465D01*
X335825D01*
X336481Y184121D01*
Y184776D01*
X335825Y185432D01*
X333857D01*
X337793Y186744D02*
X338449Y187400D01*
X339761D01*
X340417Y186744D01*
Y184121D01*
X339761Y183465D01*
X338449D01*
X337793Y184121D01*
Y186744D01*
X100000Y335827D02*
X96064D01*
Y337795D01*
X96720Y338451D01*
X98032D01*
X98688Y337795D01*
Y335827D01*
Y337139D02*
X100000Y338451D01*
X96064Y342386D02*
Y339762D01*
X98032D01*
X97376Y341074D01*
Y341730D01*
X98032Y342386D01*
X99344D01*
X100000Y341730D01*
Y340419D01*
X99344Y339762D01*
X96064Y346322D02*
Y343698D01*
X98032D01*
X97376Y345010D01*
Y345666D01*
X98032Y346322D01*
X99344D01*
X100000Y345666D01*
Y344354D01*
X99344Y343698D01*
X102362Y550000D02*
Y553936D01*
X104330D01*
X104986Y553280D01*
Y551968D01*
X104330Y551312D01*
X102362D01*
X103674D02*
X104986Y550000D01*
X108922Y553936D02*
X106298D01*
Y551968D01*
X107610Y552624D01*
X108266D01*
X108922Y551968D01*
Y550656D01*
X108266Y550000D01*
X106954D01*
X106298Y550656D01*
X112202Y550000D02*
Y553936D01*
X110234Y551968D01*
X112857D01*
X104331Y577165D02*
Y581101D01*
X106299D01*
X106955Y580445D01*
Y579133D01*
X106299Y578477D01*
X104331D01*
X105643D02*
X106955Y577165D01*
X110890Y581101D02*
X108266D01*
Y579133D01*
X109578Y579789D01*
X110234D01*
X110890Y579133D01*
Y577821D01*
X110234Y577165D01*
X108922D01*
X108266Y577821D01*
X112202Y580445D02*
X112858Y581101D01*
X114170D01*
X114826Y580445D01*
Y579789D01*
X114170Y579133D01*
X113514D01*
X114170D01*
X114826Y578477D01*
Y577821D01*
X114170Y577165D01*
X112858D01*
X112202Y577821D01*
X102362Y534252D02*
Y538188D01*
X104330D01*
X104986Y537532D01*
Y536220D01*
X104330Y535564D01*
X102362D01*
X103674D02*
X104986Y534252D01*
X108922Y538188D02*
X106298D01*
Y536220D01*
X107610Y536876D01*
X108266D01*
X108922Y536220D01*
Y534908D01*
X108266Y534252D01*
X106954D01*
X106298Y534908D01*
X112857Y534252D02*
X110234D01*
X112857Y536876D01*
Y537532D01*
X112202Y538188D01*
X110890D01*
X110234Y537532D01*
X103150Y563386D02*
Y567322D01*
X105117D01*
X105773Y566666D01*
Y565354D01*
X105117Y564698D01*
X103150D01*
X104462D02*
X105773Y563386D01*
X109709Y567322D02*
X107085D01*
Y565354D01*
X108397Y566010D01*
X109053D01*
X109709Y565354D01*
Y564042D01*
X109053Y563386D01*
X107741D01*
X107085Y564042D01*
X111021Y563386D02*
X112333D01*
X111677D01*
Y567322D01*
X111021Y566666D01*
X207000Y552000D02*
X203064D01*
Y553968D01*
X203720Y554624D01*
X205032D01*
X205688Y553968D01*
Y552000D01*
Y553312D02*
X207000Y554624D01*
X203064Y558560D02*
Y555936D01*
X205032D01*
X204376Y557248D01*
Y557904D01*
X205032Y558560D01*
X206344D01*
X207000Y557904D01*
Y556592D01*
X206344Y555936D01*
X203720Y559871D02*
X203064Y560527D01*
Y561839D01*
X203720Y562495D01*
X206344D01*
X207000Y561839D01*
Y560527D01*
X206344Y559871D01*
X203720D01*
X296063Y433858D02*
Y437794D01*
X298031D01*
X298687Y437138D01*
Y435826D01*
X298031Y435170D01*
X296063D01*
X297375D02*
X298687Y433858D01*
X301967D02*
Y437794D01*
X299999Y435826D01*
X302623D01*
X303935Y434514D02*
X304590Y433858D01*
X305902D01*
X306558Y434514D01*
Y437138D01*
X305902Y437794D01*
X304590D01*
X303935Y437138D01*
Y436482D01*
X304590Y435826D01*
X306558D01*
X183465Y437795D02*
Y441731D01*
X185432D01*
X186088Y441075D01*
Y439763D01*
X185432Y439107D01*
X183465D01*
X184776D02*
X186088Y437795D01*
X189368D02*
Y441731D01*
X187400Y439763D01*
X190024D01*
X193960Y441731D02*
X192648Y441075D01*
X191336Y439763D01*
Y438451D01*
X191992Y437795D01*
X193304D01*
X193960Y438451D01*
Y439107D01*
X193304Y439763D01*
X191336D01*
X238583Y440158D02*
Y444093D01*
X240551D01*
X241207Y443437D01*
Y442125D01*
X240551Y441469D01*
X238583D01*
X239895D02*
X241207Y440158D01*
X244486D02*
Y444093D01*
X242518Y442125D01*
X245142D01*
X249078Y444093D02*
X246454D01*
Y442125D01*
X247766Y442781D01*
X248422D01*
X249078Y442125D01*
Y440813D01*
X248422Y440158D01*
X247110D01*
X246454Y440813D01*
X233465Y407087D02*
Y411022D01*
X235432D01*
X236088Y410366D01*
Y409055D01*
X235432Y408398D01*
X233465D01*
X234776D02*
X236088Y407087D01*
X239368D02*
Y411022D01*
X237400Y409055D01*
X240024D01*
X243304Y407087D02*
Y411022D01*
X241336Y409055D01*
X243960D01*
X296457Y419685D02*
Y423621D01*
X298425D01*
X299080Y422965D01*
Y421653D01*
X298425Y420997D01*
X296457D01*
X297769D02*
X299080Y419685D01*
X302360D02*
Y423621D01*
X300392Y421653D01*
X303016D01*
X304328Y422965D02*
X304984Y423621D01*
X306296D01*
X306952Y422965D01*
Y422309D01*
X306296Y421653D01*
X305640D01*
X306296D01*
X306952Y420997D01*
Y420341D01*
X306296Y419685D01*
X304984D01*
X304328Y420341D01*
X296457Y405905D02*
Y409841D01*
X298425D01*
X299080Y409185D01*
Y407873D01*
X298425Y407217D01*
X296457D01*
X297769D02*
X299080Y405905D01*
X300392Y409185D02*
X301048Y409841D01*
X302360D01*
X303016Y409185D01*
Y408529D01*
X302360Y407873D01*
X301704D01*
X302360D01*
X303016Y407217D01*
Y406562D01*
X302360Y405905D01*
X301048D01*
X300392Y406562D01*
X306296Y405905D02*
Y409841D01*
X304328Y407873D01*
X306952D01*
X296457Y392126D02*
Y396062D01*
X298425D01*
X299080Y395406D01*
Y394094D01*
X298425Y393438D01*
X296457D01*
X297769D02*
X299080Y392126D01*
X300392Y395406D02*
X301048Y396062D01*
X302360D01*
X303016Y395406D01*
Y394750D01*
X302360Y394094D01*
X301704D01*
X302360D01*
X303016Y393438D01*
Y392782D01*
X302360Y392126D01*
X301048D01*
X300392Y392782D01*
X304328Y395406D02*
X304984Y396062D01*
X306296D01*
X306952Y395406D01*
Y394750D01*
X306296Y394094D01*
X305640D01*
X306296D01*
X306952Y393438D01*
Y392782D01*
X306296Y392126D01*
X304984D01*
X304328Y392782D01*
X359842Y233858D02*
Y237794D01*
X361810D01*
X362466Y237138D01*
Y235826D01*
X361810Y235170D01*
X359842D01*
X361154D02*
X362466Y233858D01*
X363778Y237138D02*
X364434Y237794D01*
X365746D01*
X366402Y237138D01*
Y236482D01*
X365746Y235826D01*
X365090D01*
X365746D01*
X366402Y235170D01*
Y234514D01*
X365746Y233858D01*
X364434D01*
X363778Y234514D01*
X370338Y233858D02*
X367714D01*
X370338Y236482D01*
Y237138D01*
X369682Y237794D01*
X368370D01*
X367714Y237138D01*
X359842Y190945D02*
Y194881D01*
X361810D01*
X362466Y194225D01*
Y192913D01*
X361810Y192257D01*
X359842D01*
X361154D02*
X362466Y190945D01*
X363778Y194225D02*
X364434Y194881D01*
X365746D01*
X366402Y194225D01*
Y193569D01*
X365746Y192913D01*
X365090D01*
X365746D01*
X366402Y192257D01*
Y191601D01*
X365746Y190945D01*
X364434D01*
X363778Y191601D01*
X367714Y190945D02*
X369026D01*
X368370D01*
Y194881D01*
X367714Y194225D01*
X146850Y214567D02*
X142915D01*
Y216535D01*
X143571Y217191D01*
X144883D01*
X145538Y216535D01*
Y214567D01*
Y215879D02*
X146850Y217191D01*
Y221127D02*
Y218503D01*
X144227Y221127D01*
X143571D01*
X142915Y220470D01*
Y219159D01*
X143571Y218503D01*
X142915Y225062D02*
Y222438D01*
X144883D01*
X144227Y223750D01*
Y224406D01*
X144883Y225062D01*
X146194D01*
X146850Y224406D01*
Y223094D01*
X146194Y222438D01*
X146850Y202362D02*
X142915D01*
Y204330D01*
X143571Y204986D01*
X144883D01*
X145538Y204330D01*
Y202362D01*
Y203674D02*
X146850Y204986D01*
Y208922D02*
Y206298D01*
X144227Y208922D01*
X143571D01*
X142915Y208266D01*
Y206954D01*
X143571Y206298D01*
X146850Y212202D02*
X142915D01*
X144883Y210234D01*
Y212858D01*
X117717Y244882D02*
X113781D01*
Y246850D01*
X114437Y247506D01*
X115749D01*
X116405Y246850D01*
Y244882D01*
Y246194D02*
X117717Y247506D01*
Y251441D02*
Y248818D01*
X115093Y251441D01*
X114437D01*
X113781Y250785D01*
Y249474D01*
X114437Y248818D01*
Y252753D02*
X113781Y253409D01*
Y254721D01*
X114437Y255377D01*
X115093D01*
X115749Y254721D01*
Y254065D01*
Y254721D01*
X116405Y255377D01*
X117061D01*
X117717Y254721D01*
Y253409D01*
X117061Y252753D01*
X115354Y215354D02*
X111419D01*
Y217322D01*
X112075Y217978D01*
X113386D01*
X114042Y217322D01*
Y215354D01*
Y216666D02*
X115354Y217978D01*
Y221914D02*
Y219290D01*
X112731Y221914D01*
X112075D01*
X111419Y221258D01*
Y219946D01*
X112075Y219290D01*
X115354Y225850D02*
Y223226D01*
X112731Y225850D01*
X112075D01*
X111419Y225194D01*
Y223882D01*
X112075Y223226D01*
X133465Y215748D02*
X129529D01*
Y217716D01*
X130185Y218372D01*
X131497D01*
X132153Y217716D01*
Y215748D01*
Y217060D02*
X133465Y218372D01*
Y222308D02*
Y219684D01*
X130841Y222308D01*
X130185D01*
X129529Y221652D01*
Y220340D01*
X130185Y219684D01*
X133465Y223620D02*
Y224931D01*
Y224275D01*
X129529D01*
X130185Y223620D01*
X98819Y381890D02*
X94883D01*
Y383858D01*
X95539Y384514D01*
X96851D01*
X97507Y383858D01*
Y381890D01*
Y383202D02*
X98819Y384514D01*
Y388449D02*
Y385825D01*
X96195Y388449D01*
X95539D01*
X94883Y387793D01*
Y386481D01*
X95539Y385825D01*
Y389761D02*
X94883Y390417D01*
Y391729D01*
X95539Y392385D01*
X98163D01*
X98819Y391729D01*
Y390417D01*
X98163Y389761D01*
X95539D01*
X103150Y438976D02*
X99214D01*
Y440944D01*
X99870Y441600D01*
X101182D01*
X101838Y440944D01*
Y438976D01*
Y440288D02*
X103150Y441600D01*
Y442912D02*
Y444224D01*
Y443568D01*
X99214D01*
X99870Y442912D01*
X102494Y446192D02*
X103150Y446848D01*
Y448160D01*
X102494Y448816D01*
X99870D01*
X99214Y448160D01*
Y446848D01*
X99870Y446192D01*
X100526D01*
X101182Y446848D01*
Y448816D01*
X341339Y161811D02*
Y165747D01*
X343306D01*
X343962Y165091D01*
Y163779D01*
X343306Y163123D01*
X341339D01*
X342651D02*
X343962Y161811D01*
X345274D02*
X346586D01*
X345930D01*
Y165747D01*
X345274Y165091D01*
X348554D02*
X349210Y165747D01*
X350522D01*
X351178Y165091D01*
Y164435D01*
X350522Y163779D01*
X349866D01*
X350522D01*
X351178Y163123D01*
Y162467D01*
X350522Y161811D01*
X349210D01*
X348554Y162467D01*
X341339Y142520D02*
Y146455D01*
X343306D01*
X343962Y145800D01*
Y144488D01*
X343306Y143832D01*
X341339D01*
X342651D02*
X343962Y142520D01*
X345274D02*
X346586D01*
X345930D01*
Y146455D01*
X345274Y145800D01*
X351178Y142520D02*
X348554D01*
X351178Y145143D01*
Y145800D01*
X350522Y146455D01*
X349210D01*
X348554Y145800D01*
X343307Y102756D02*
Y106692D01*
X345275D01*
X345931Y106036D01*
Y104724D01*
X345275Y104068D01*
X343307D01*
X344619D02*
X345931Y102756D01*
X347243D02*
X348555D01*
X347899D01*
Y106692D01*
X347243Y106036D01*
X350523Y102756D02*
X351835D01*
X351179D01*
Y106692D01*
X350523Y106036D01*
X342126Y118898D02*
Y122833D01*
X344094D01*
X344750Y122177D01*
Y120865D01*
X344094Y120210D01*
X342126D01*
X343438D02*
X344750Y118898D01*
X346062D02*
X347374D01*
X346718D01*
Y122833D01*
X346062Y122177D01*
X349342D02*
X349997Y122833D01*
X351309D01*
X351965Y122177D01*
Y119554D01*
X351309Y118898D01*
X349997D01*
X349342Y119554D01*
Y122177D01*
X121260Y125984D02*
X117324D01*
Y127952D01*
X117980Y128608D01*
X119292D01*
X119948Y127952D01*
Y125984D01*
Y127296D02*
X121260Y128608D01*
X120604Y129920D02*
X121260Y130576D01*
Y131888D01*
X120604Y132544D01*
X117980D01*
X117324Y131888D01*
Y130576D01*
X117980Y129920D01*
X118636D01*
X119292Y130576D01*
Y132544D01*
X144095Y494488D02*
Y498424D01*
X146062D01*
X146718Y497768D01*
Y496456D01*
X146062Y495800D01*
X144095D01*
X145406D02*
X146718Y494488D01*
X148030Y497768D02*
X148686Y498424D01*
X149998D01*
X150654Y497768D01*
Y497112D01*
X149998Y496456D01*
X150654Y495800D01*
Y495144D01*
X149998Y494488D01*
X148686D01*
X148030Y495144D01*
Y495800D01*
X148686Y496456D01*
X148030Y497112D01*
Y497768D01*
X148686Y496456D02*
X149998D01*
X158760Y402264D02*
Y406200D01*
X160728D01*
X161384Y405544D01*
Y404232D01*
X160728Y403576D01*
X158760D01*
X160072D02*
X161384Y402264D01*
X162696Y406200D02*
X165319D01*
Y405544D01*
X162696Y402920D01*
Y402264D01*
X189370Y401968D02*
Y405904D01*
X191338D01*
X191994Y405248D01*
Y403936D01*
X191338Y403280D01*
X189370D01*
X190682D02*
X191994Y401968D01*
X195930Y405904D02*
X194618Y405248D01*
X193306Y403936D01*
Y402625D01*
X193962Y401968D01*
X195274D01*
X195930Y402625D01*
Y403280D01*
X195274Y403936D01*
X193306D01*
X323622Y101969D02*
Y105904D01*
X325590D01*
X326246Y105248D01*
Y103936D01*
X325590Y103280D01*
X323622D01*
X324934D02*
X326246Y101969D01*
X330182Y105904D02*
X327558D01*
Y103936D01*
X328870Y104592D01*
X329526D01*
X330182Y103936D01*
Y102624D01*
X329526Y101969D01*
X328214D01*
X327558Y102624D01*
X337795Y90551D02*
Y94487D01*
X339763D01*
X340419Y93831D01*
Y92519D01*
X339763Y91863D01*
X337795D01*
X339107D02*
X340419Y90551D01*
X343699D02*
Y94487D01*
X341731Y92519D01*
X344355D01*
X327559Y78740D02*
Y82676D01*
X329527D01*
X330183Y82020D01*
Y80708D01*
X329527Y80052D01*
X327559D01*
X328871D02*
X330183Y78740D01*
X334119D02*
X331495D01*
X334119Y81364D01*
Y82020D01*
X333463Y82676D01*
X332151D01*
X331495Y82020D01*
X220344Y556624D02*
X217720D01*
X217064Y555968D01*
Y554656D01*
X217720Y554000D01*
X220344D01*
X221000Y554656D01*
Y555968D01*
X219688Y555312D02*
X221000Y556624D01*
Y555968D02*
X220344Y556624D01*
X217720Y557936D02*
X217064Y558592D01*
Y559904D01*
X217720Y560560D01*
X218376D01*
X219032Y559904D01*
Y559248D01*
Y559904D01*
X219688Y560560D01*
X220344D01*
X221000Y559904D01*
Y558592D01*
X220344Y557936D01*
X179395Y284644D02*
X178084D01*
X178740D01*
Y281365D01*
X178084Y280709D01*
X177428D01*
X176772Y281365D01*
X180707Y280709D02*
Y284644D01*
X182675D01*
X183331Y283988D01*
Y282677D01*
X182675Y282021D01*
X180707D01*
X184643Y283988D02*
X185299Y284644D01*
X186611D01*
X187267Y283988D01*
Y283332D01*
X186611Y282677D01*
X187267Y282021D01*
Y281365D01*
X186611Y280709D01*
X185299D01*
X184643Y281365D01*
Y282021D01*
X185299Y282677D01*
X184643Y283332D01*
Y283988D01*
X185299Y282677D02*
X186611D01*
X139632Y282676D02*
X138320D01*
X138976D01*
Y279396D01*
X138320Y278740D01*
X137664D01*
X137008Y279396D01*
X140944Y278740D02*
Y282676D01*
X142912D01*
X143567Y282020D01*
Y280708D01*
X142912Y280052D01*
X140944D01*
X146847Y278740D02*
Y282676D01*
X144879Y280708D01*
X147503D01*
X360892Y70471D02*
X359580D01*
X360236D01*
Y67191D01*
X359580Y66535D01*
X358924D01*
X358268Y67191D01*
X362204Y66535D02*
Y70471D01*
X364171D01*
X364827Y69815D01*
Y68503D01*
X364171Y67847D01*
X362204D01*
X366139Y69815D02*
X366795Y70471D01*
X368107D01*
X368763Y69815D01*
Y69159D01*
X368107Y68503D01*
X367451D01*
X368107D01*
X368763Y67847D01*
Y67191D01*
X368107Y66535D01*
X366795D01*
X366139Y67191D01*
X384710Y26967D02*
X383399D01*
X384054D01*
Y23687D01*
X383399Y23031D01*
X382743D01*
X382087Y23687D01*
X386022Y23031D02*
Y26967D01*
X387990D01*
X388646Y26311D01*
Y24999D01*
X387990Y24343D01*
X386022D01*
X392582Y23031D02*
X389958D01*
X392582Y25655D01*
Y26311D01*
X391926Y26967D01*
X390614D01*
X389958Y26311D01*
X373785Y26967D02*
X372473D01*
X373129D01*
Y23687D01*
X372473Y23031D01*
X371817D01*
X371161Y23687D01*
X375097Y23031D02*
Y26967D01*
X377065D01*
X377721Y26311D01*
Y24999D01*
X377065Y24343D01*
X375097D01*
X379033Y23031D02*
X380345D01*
X379689D01*
Y26967D01*
X379033Y26311D01*
X267584Y378739D02*
X264961D01*
Y376771D01*
X266272D01*
X264961D01*
Y374803D01*
X268896Y378739D02*
Y374803D01*
X270864D01*
X271520Y375459D01*
Y376115D01*
X270864Y376771D01*
X268896D01*
X270864D01*
X271520Y377427D01*
Y378083D01*
X270864Y378739D01*
X268896D01*
X275456Y374803D02*
X272832D01*
X275456Y377427D01*
Y378083D01*
X274800Y378739D01*
X273488D01*
X272832Y378083D01*
X155773Y429920D02*
X153150D01*
Y427952D01*
X154462D01*
X153150D01*
Y425984D01*
X157085Y429920D02*
Y425984D01*
X159053D01*
X159709Y426640D01*
Y427296D01*
X159053Y427952D01*
X157085D01*
X159053D01*
X159709Y428608D01*
Y429264D01*
X159053Y429920D01*
X157085D01*
X161021Y425984D02*
X162333D01*
X161677D01*
Y429920D01*
X161021Y429264D01*
X91994Y318503D02*
X89370D01*
Y316535D01*
X90682D01*
X89370D01*
Y314567D01*
X93306D02*
X94618D01*
X93962D01*
Y318503D01*
X93306Y317847D01*
X151181Y574802D02*
Y570866D01*
X153149D01*
X153805Y571522D01*
Y574146D01*
X153149Y574802D01*
X151181D01*
X155117Y570866D02*
X156429D01*
X155773D01*
Y574802D01*
X155117Y574146D01*
X161021Y574802D02*
X158397D01*
Y572834D01*
X159708Y573490D01*
X160364D01*
X161021Y572834D01*
Y571522D01*
X160364Y570866D01*
X159053D01*
X158397Y571522D01*
X151181Y547243D02*
Y543307D01*
X153149D01*
X153805Y543963D01*
Y546587D01*
X153149Y547243D01*
X151181D01*
X155117Y543307D02*
X156429D01*
X155773D01*
Y547243D01*
X155117Y546587D01*
X160364Y543307D02*
Y547243D01*
X158397Y545275D01*
X161021D01*
X151181Y561022D02*
Y557087D01*
X153149D01*
X153805Y557743D01*
Y560366D01*
X153149Y561022D01*
X151181D01*
X155117Y557087D02*
X156429D01*
X155773D01*
Y561022D01*
X155117Y560366D01*
X158397D02*
X159053Y561022D01*
X160364D01*
X161021Y560366D01*
Y559710D01*
X160364Y559055D01*
X159708D01*
X160364D01*
X161021Y558398D01*
Y557743D01*
X160364Y557087D01*
X159053D01*
X158397Y557743D01*
X151575Y531495D02*
Y527559D01*
X153543D01*
X154199Y528215D01*
Y530839D01*
X153543Y531495D01*
X151575D01*
X155510Y527559D02*
X156823D01*
X156167D01*
Y531495D01*
X155510Y530839D01*
X161414Y527559D02*
X158790D01*
X161414Y530183D01*
Y530839D01*
X160758Y531495D01*
X159446D01*
X158790Y530839D01*
X253937Y417715D02*
Y413779D01*
X255905D01*
X256561Y414435D01*
Y417059D01*
X255905Y417715D01*
X253937D01*
X257873Y413779D02*
X259185D01*
X258529D01*
Y417715D01*
X257873Y417059D01*
X261153Y413779D02*
X262464D01*
X261808D01*
Y417715D01*
X261153Y417059D01*
X252756Y431101D02*
Y427165D01*
X254724D01*
X255380Y427821D01*
Y430445D01*
X254724Y431101D01*
X252756D01*
X256692Y427165D02*
X258004D01*
X257348D01*
Y431101D01*
X256692Y430445D01*
X259971D02*
X260627Y431101D01*
X261939D01*
X262595Y430445D01*
Y427821D01*
X261939Y427165D01*
X260627D01*
X259971Y427821D01*
Y430445D01*
X256299Y389762D02*
Y385827D01*
X258267D01*
X258923Y386483D01*
Y389107D01*
X258267Y389762D01*
X256299D01*
X260235Y386483D02*
X260891Y385827D01*
X262203D01*
X262859Y386483D01*
Y389107D01*
X262203Y389762D01*
X260891D01*
X260235Y389107D01*
Y388451D01*
X260891Y387795D01*
X262859D01*
X256299Y403542D02*
Y399606D01*
X258267D01*
X258923Y400262D01*
Y402886D01*
X258267Y403542D01*
X256299D01*
X260235Y402886D02*
X260891Y403542D01*
X262203D01*
X262859Y402886D01*
Y402230D01*
X262203Y401574D01*
X262859Y400918D01*
Y400262D01*
X262203Y399606D01*
X260891D01*
X260235Y400262D01*
Y400918D01*
X260891Y401574D01*
X260235Y402230D01*
Y402886D01*
X260891Y401574D02*
X262203D01*
X125984Y318109D02*
Y314173D01*
X127952D01*
X128608Y314829D01*
Y317453D01*
X127952Y318109D01*
X125984D01*
X129920D02*
X132544D01*
Y317453D01*
X129920Y314829D01*
Y314173D01*
X100395Y470079D02*
X104331D01*
Y472047D01*
X103675Y472703D01*
X101051D01*
X100395Y472047D01*
Y470079D01*
X104331Y475982D02*
X100395D01*
X102363Y474015D01*
Y476638D01*
X361024Y88188D02*
Y84252D01*
X362991D01*
X363647Y84908D01*
Y87532D01*
X362991Y88188D01*
X361024D01*
X364959Y87532D02*
X365615Y88188D01*
X366927D01*
X367583Y87532D01*
Y86876D01*
X366927Y86220D01*
X366271D01*
X366927D01*
X367583Y85564D01*
Y84908D01*
X366927Y84252D01*
X365615D01*
X364959Y84908D01*
X360630Y127558D02*
Y123622D01*
X362598D01*
X363254Y124278D01*
Y126902D01*
X362598Y127558D01*
X360630D01*
X367190Y123622D02*
X364566D01*
X367190Y126246D01*
Y126902D01*
X366533Y127558D01*
X365222D01*
X364566Y126902D01*
X189765Y336221D02*
X193701D01*
Y338188D01*
X193045Y338844D01*
X190421D01*
X189765Y338188D01*
Y336221D01*
X193701Y340156D02*
Y341468D01*
Y340812D01*
X189765D01*
X190421Y340156D01*
X83333Y361941D02*
X82677Y362597D01*
X81365D01*
X80709Y361941D01*
Y359317D01*
X81365Y358661D01*
X82677D01*
X83333Y359317D01*
X84644Y362597D02*
X87268D01*
Y361941D01*
X84644Y359317D01*
Y358661D01*
X88580D02*
X89892D01*
X89236D01*
Y362597D01*
X88580Y361941D01*
X287665Y196718D02*
X287009Y196062D01*
Y194750D01*
X287665Y194095D01*
X290289D01*
X290945Y194750D01*
Y196062D01*
X290289Y196718D01*
X287009Y198030D02*
Y200654D01*
X287665D01*
X290289Y198030D01*
X290945D01*
X287665Y201966D02*
X287009Y202622D01*
Y203934D01*
X287665Y204590D01*
X290289D01*
X290945Y203934D01*
Y202622D01*
X290289Y201966D01*
X287665D01*
X400655Y212729D02*
X399999Y213385D01*
X398688D01*
X398031Y212729D01*
Y210105D01*
X398688Y209449D01*
X399999D01*
X400655Y210105D01*
X404591Y213385D02*
X403279Y212729D01*
X401967Y211417D01*
Y210105D01*
X402623Y209449D01*
X403935D01*
X404591Y210105D01*
Y210761D01*
X403935Y211417D01*
X401967D01*
X405903Y212729D02*
X406559Y213385D01*
X407871D01*
X408527Y212729D01*
Y210105D01*
X407871Y209449D01*
X406559D01*
X405903Y210105D01*
Y212729D01*
X375065Y213122D02*
X374409Y213778D01*
X373097D01*
X372441Y213122D01*
Y210498D01*
X373097Y209842D01*
X374409D01*
X375065Y210498D01*
X379000Y213778D02*
X376377D01*
Y211810D01*
X377689Y212466D01*
X378345D01*
X379000Y211810D01*
Y210498D01*
X378345Y209842D01*
X377033D01*
X376377Y210498D01*
X380312D02*
X380968Y209842D01*
X382280D01*
X382936Y210498D01*
Y213122D01*
X382280Y213778D01*
X380968D01*
X380312Y213122D01*
Y212466D01*
X380968Y211810D01*
X382936D01*
X413648Y161941D02*
X412992Y162597D01*
X411680D01*
X411024Y161941D01*
Y159317D01*
X411680Y158661D01*
X412992D01*
X413648Y159317D01*
X417583Y162597D02*
X414959D01*
Y160629D01*
X416271Y161285D01*
X416927D01*
X417583Y160629D01*
Y159317D01*
X416927Y158661D01*
X415615D01*
X414959Y159317D01*
X418895Y161941D02*
X419551Y162597D01*
X420863D01*
X421519Y161941D01*
Y161285D01*
X420863Y160629D01*
X421519Y159973D01*
Y159317D01*
X420863Y158661D01*
X419551D01*
X418895Y159317D01*
Y159973D01*
X419551Y160629D01*
X418895Y161285D01*
Y161941D01*
X419551Y160629D02*
X420863D01*
X399868Y170603D02*
X399212Y171259D01*
X397900D01*
X397244Y170603D01*
Y167979D01*
X397900Y167323D01*
X399212D01*
X399868Y167979D01*
X403804Y171259D02*
X401180D01*
Y169291D01*
X402492Y169947D01*
X403148D01*
X403804Y169291D01*
Y167979D01*
X403148Y167323D01*
X401836D01*
X401180Y167979D01*
X405116Y171259D02*
X407739D01*
Y170603D01*
X405116Y167979D01*
Y167323D01*
X193571Y420734D02*
X192915Y420078D01*
Y418766D01*
X193571Y418110D01*
X196194D01*
X196850Y418766D01*
Y420078D01*
X196194Y420734D01*
X192915Y424670D02*
Y422046D01*
X194883D01*
X194227Y423358D01*
Y424014D01*
X194883Y424670D01*
X196194D01*
X196850Y424014D01*
Y422702D01*
X196194Y422046D01*
X193571Y425982D02*
X192915Y426638D01*
Y427950D01*
X193571Y428606D01*
X196194D01*
X196850Y427950D01*
Y426638D01*
X196194Y425982D01*
X193571D01*
X211679Y409579D02*
X211023Y410235D01*
X209711D01*
X209055Y409579D01*
Y406955D01*
X209711Y406299D01*
X211023D01*
X211679Y406955D01*
X214959Y406299D02*
Y410235D01*
X212991Y408267D01*
X215615D01*
X216927Y406955D02*
X217583Y406299D01*
X218895D01*
X219550Y406955D01*
Y409579D01*
X218895Y410235D01*
X217583D01*
X216927Y409579D01*
Y408923D01*
X217583Y408267D01*
X219550D01*
X159710Y418240D02*
X159055Y418896D01*
X157743D01*
X157087Y418240D01*
Y415617D01*
X157743Y414961D01*
X159055D01*
X159710Y415617D01*
X162990Y414961D02*
Y418896D01*
X161022Y416928D01*
X163646D01*
X164958Y418240D02*
X165614Y418896D01*
X166926D01*
X167582Y418240D01*
Y417585D01*
X166926Y416928D01*
X167582Y416272D01*
Y415617D01*
X166926Y414961D01*
X165614D01*
X164958Y415617D01*
Y416272D01*
X165614Y416928D01*
X164958Y417585D01*
Y418240D01*
X165614Y416928D02*
X166926D01*
X111285Y406036D02*
X110629Y406692D01*
X109317D01*
X108661Y406036D01*
Y403412D01*
X109317Y402756D01*
X110629D01*
X111285Y403412D01*
X114565Y402756D02*
Y406692D01*
X112597Y404724D01*
X115221D01*
X116533Y406692D02*
X119157D01*
Y406036D01*
X116533Y403412D01*
Y402756D01*
X128019Y277821D02*
X127364Y277165D01*
Y275853D01*
X128019Y275197D01*
X130643D01*
X131299Y275853D01*
Y277165D01*
X130643Y277821D01*
X131299Y281101D02*
X127364D01*
X129331Y279133D01*
Y281756D01*
X127364Y285692D02*
X128019Y284380D01*
X129331Y283068D01*
X130643D01*
X131299Y283724D01*
Y285036D01*
X130643Y285692D01*
X129987D01*
X129331Y285036D01*
Y283068D01*
X122409Y277722D02*
X121753Y277066D01*
Y275754D01*
X122409Y275098D01*
X125033D01*
X125689Y275754D01*
Y277066D01*
X125033Y277722D01*
X125689Y281002D02*
X121753D01*
X123721Y279034D01*
Y281658D01*
X121753Y285594D02*
Y282970D01*
X123721D01*
X123065Y284282D01*
Y284938D01*
X123721Y285594D01*
X125033D01*
X125689Y284938D01*
Y283626D01*
X125033Y282970D01*
X116897Y277722D02*
X116241Y277066D01*
Y275754D01*
X116897Y275098D01*
X119521D01*
X120177Y275754D01*
Y277066D01*
X119521Y277722D01*
X120177Y281002D02*
X116241D01*
X118209Y279034D01*
Y281658D01*
X120177Y284938D02*
X116241D01*
X118209Y282970D01*
Y285594D01*
X97899Y157217D02*
X97243Y157873D01*
X95932D01*
X95276Y157217D01*
Y154593D01*
X95932Y153937D01*
X97243D01*
X97899Y154593D01*
X99211Y157217D02*
X99867Y157873D01*
X101179D01*
X101835Y157217D01*
Y156561D01*
X101179Y155905D01*
X100523D01*
X101179D01*
X101835Y155249D01*
Y154593D01*
X101179Y153937D01*
X99867D01*
X99211Y154593D01*
X105115Y153937D02*
Y157873D01*
X103147Y155905D01*
X105771D01*
X244356Y172571D02*
X243700Y173227D01*
X242388D01*
X241732Y172571D01*
Y169947D01*
X242388Y169291D01*
X243700D01*
X244356Y169947D01*
X245668Y172571D02*
X246324Y173227D01*
X247636D01*
X248292Y172571D01*
Y171915D01*
X247636Y171259D01*
X246980D01*
X247636D01*
X248292Y170603D01*
Y169947D01*
X247636Y169291D01*
X246324D01*
X245668Y169947D01*
X252228Y169291D02*
X249604D01*
X252228Y171915D01*
Y172571D01*
X251572Y173227D01*
X250260D01*
X249604Y172571D01*
X238057Y148555D02*
X237401Y149211D01*
X236089D01*
X235433Y148555D01*
Y145931D01*
X236089Y145276D01*
X237401D01*
X238057Y145931D01*
X239369Y148555D02*
X240025Y149211D01*
X241337D01*
X241993Y148555D01*
Y147899D01*
X241337Y147243D01*
X240681D01*
X241337D01*
X241993Y146588D01*
Y145931D01*
X241337Y145276D01*
X240025D01*
X239369Y145931D01*
X243305Y145276D02*
X244617D01*
X243960D01*
Y149211D01*
X243305Y148555D01*
X222703Y189500D02*
X222047Y190156D01*
X220735D01*
X220079Y189500D01*
Y186876D01*
X220735Y186221D01*
X222047D01*
X222703Y186876D01*
X224014Y189500D02*
X224670Y190156D01*
X225982D01*
X226638Y189500D01*
Y188844D01*
X225982Y188188D01*
X225326D01*
X225982D01*
X226638Y187532D01*
Y186876D01*
X225982Y186221D01*
X224670D01*
X224014Y186876D01*
X227950Y189500D02*
X228606Y190156D01*
X229918D01*
X230574Y189500D01*
Y186876D01*
X229918Y186221D01*
X228606D01*
X227950Y186876D01*
Y189500D01*
X219949Y102230D02*
X219293Y101574D01*
Y100262D01*
X219949Y99606D01*
X222572D01*
X223228Y100262D01*
Y101574D01*
X222572Y102230D01*
X223228Y106166D02*
Y103542D01*
X220604Y106166D01*
X219949D01*
X219293Y105510D01*
Y104198D01*
X219949Y103542D01*
X222572Y107478D02*
X223228Y108134D01*
Y109446D01*
X222572Y110102D01*
X219949D01*
X219293Y109446D01*
Y108134D01*
X219949Y107478D01*
X220604D01*
X221260Y108134D01*
Y110102D01*
X238057Y143044D02*
X237401Y143700D01*
X236089D01*
X235433Y143044D01*
Y140420D01*
X236089Y139764D01*
X237401D01*
X238057Y140420D01*
X241993Y139764D02*
X239369D01*
X241993Y142388D01*
Y143044D01*
X241337Y143700D01*
X240025D01*
X239369Y143044D01*
X243305D02*
X243960Y143700D01*
X245272D01*
X245928Y143044D01*
Y142388D01*
X245272Y141732D01*
X245928Y141076D01*
Y140420D01*
X245272Y139764D01*
X243960D01*
X243305Y140420D01*
Y141076D01*
X243960Y141732D01*
X243305Y142388D01*
Y143044D01*
X243960Y141732D02*
X245272D01*
X223096Y165288D02*
X222440Y165944D01*
X221128D01*
X220472Y165288D01*
Y162664D01*
X221128Y162008D01*
X222440D01*
X223096Y162664D01*
X227032Y162008D02*
X224408D01*
X227032Y164632D01*
Y165288D01*
X226376Y165944D01*
X225064D01*
X224408Y165288D01*
X228344Y165944D02*
X230968D01*
Y165288D01*
X228344Y162664D01*
Y162008D01*
X248687Y155248D02*
X248031Y155904D01*
X246719D01*
X246063Y155248D01*
Y152624D01*
X246719Y151969D01*
X248031D01*
X248687Y152624D01*
X252623Y151969D02*
X249999D01*
X252623Y154592D01*
Y155248D01*
X251967Y155904D01*
X250655D01*
X249999Y155248D01*
X256558Y155904D02*
X255246Y155248D01*
X253935Y153936D01*
Y152624D01*
X254590Y151969D01*
X255902D01*
X256558Y152624D01*
Y153280D01*
X255902Y153936D01*
X253935D01*
X97899Y162729D02*
X97243Y163385D01*
X95932D01*
X95276Y162729D01*
Y160105D01*
X95932Y159449D01*
X97243D01*
X97899Y160105D01*
X101835Y159449D02*
X99211D01*
X101835Y162073D01*
Y162729D01*
X101179Y163385D01*
X99867D01*
X99211Y162729D01*
X105771Y159449D02*
X103147D01*
X105771Y162073D01*
Y162729D01*
X105115Y163385D01*
X103803D01*
X103147Y162729D01*
X119555Y182151D02*
X118899Y181495D01*
Y180183D01*
X119555Y179528D01*
X122179D01*
X122835Y180183D01*
Y181495D01*
X122179Y182151D01*
X122835Y186087D02*
Y183463D01*
X120211Y186087D01*
X119555D01*
X118899Y185431D01*
Y184119D01*
X119555Y183463D01*
X122835Y187399D02*
Y188711D01*
Y188055D01*
X118899D01*
X119555Y187399D01*
X116010Y109185D02*
X115354Y109841D01*
X114042D01*
X113386Y109185D01*
Y106562D01*
X114042Y105905D01*
X115354D01*
X116010Y106562D01*
X119945Y105905D02*
X117322D01*
X119945Y108529D01*
Y109185D01*
X119289Y109841D01*
X117977D01*
X117322Y109185D01*
X121257D02*
X121913Y109841D01*
X123225D01*
X123881Y109185D01*
Y106562D01*
X123225Y105905D01*
X121913D01*
X121257Y106562D01*
Y109185D01*
X97899Y168634D02*
X97243Y169290D01*
X95932D01*
X95276Y168634D01*
Y166010D01*
X95932Y165354D01*
X97243D01*
X97899Y166010D01*
X99211Y165354D02*
X100523D01*
X99867D01*
Y169290D01*
X99211Y168634D01*
X102491Y166010D02*
X103147Y165354D01*
X104459D01*
X105115Y166010D01*
Y168634D01*
X104459Y169290D01*
X103147D01*
X102491Y168634D01*
Y167978D01*
X103147Y167322D01*
X105115D01*
X182939Y89894D02*
X182283Y90550D01*
X180971D01*
X180315Y89894D01*
Y87270D01*
X180971Y86614D01*
X182283D01*
X182939Y87270D01*
X184251Y86614D02*
X185563D01*
X184907D01*
Y90550D01*
X184251Y89894D01*
X187531D02*
X188186Y90550D01*
X189498D01*
X190154Y89894D01*
Y89238D01*
X189498Y88582D01*
X190154Y87926D01*
Y87270D01*
X189498Y86614D01*
X188186D01*
X187531Y87270D01*
Y87926D01*
X188186Y88582D01*
X187531Y89238D01*
Y89894D01*
X188186Y88582D02*
X189498D01*
X90025Y145800D02*
X89369Y146455D01*
X88058D01*
X87402Y145800D01*
Y143176D01*
X88058Y142520D01*
X89369D01*
X90025Y143176D01*
X91337Y142520D02*
X92649D01*
X91993D01*
Y146455D01*
X91337Y145800D01*
X96585Y142520D02*
Y146455D01*
X94617Y144488D01*
X97241D01*
X141602Y337269D02*
X140946Y336613D01*
Y335302D01*
X141602Y334646D01*
X144226D01*
X144882Y335302D01*
Y336613D01*
X144226Y337269D01*
X144882Y338581D02*
Y339893D01*
Y339237D01*
X140946D01*
X141602Y338581D01*
Y341861D02*
X140946Y342517D01*
Y343829D01*
X141602Y344485D01*
X142258D01*
X142914Y343829D01*
Y343173D01*
Y343829D01*
X143570Y344485D01*
X144226D01*
X144882Y343829D01*
Y342517D01*
X144226Y341861D01*
X120340Y449736D02*
X119684Y450392D01*
X118372D01*
X117717Y449736D01*
Y447113D01*
X118372Y446457D01*
X119684D01*
X120340Y447113D01*
X121652Y446457D02*
X122964D01*
X122308D01*
Y450392D01*
X121652Y449736D01*
X127556Y446457D02*
X124932D01*
X127556Y449081D01*
Y449736D01*
X126900Y450392D01*
X125588D01*
X124932Y449736D01*
X164435Y453280D02*
X163779Y453936D01*
X162467D01*
X161811Y453280D01*
Y450656D01*
X162467Y450000D01*
X163779D01*
X164435Y450656D01*
X165747Y450000D02*
X167059D01*
X166403D01*
Y453936D01*
X165747Y453280D01*
X169027Y450000D02*
X170338D01*
X169683D01*
Y453936D01*
X169027Y453280D01*
X164435Y447768D02*
X163779Y448424D01*
X162467D01*
X161811Y447768D01*
Y445144D01*
X162467Y444488D01*
X163779D01*
X164435Y445144D01*
X165747Y444488D02*
X167059D01*
X166403D01*
Y448424D01*
X165747Y447768D01*
X169027D02*
X169683Y448424D01*
X170994D01*
X171650Y447768D01*
Y445144D01*
X170994Y444488D01*
X169683D01*
X169027Y445144D01*
Y447768D01*
X173884Y478083D02*
X173228Y478739D01*
X171916D01*
X171260Y478083D01*
Y475459D01*
X171916Y474803D01*
X173228D01*
X173884Y475459D01*
X175196Y478083D02*
X175852Y478739D01*
X177164D01*
X177819Y478083D01*
Y477427D01*
X177164Y476771D01*
X177819Y476115D01*
Y475459D01*
X177164Y474803D01*
X175852D01*
X175196Y475459D01*
Y476115D01*
X175852Y476771D01*
X175196Y477427D01*
Y478083D01*
X175852Y476771D02*
X177164D01*
X185891Y333004D02*
X185236Y333660D01*
X183924D01*
X183268Y333004D01*
Y330380D01*
X183924Y329724D01*
X185236D01*
X185891Y330380D01*
X189827Y333660D02*
X188515Y333004D01*
X187204Y331692D01*
Y330380D01*
X187859Y329724D01*
X189171D01*
X189827Y330380D01*
Y331036D01*
X189171Y331692D01*
X187204D01*
X185695Y327295D02*
X185039Y327952D01*
X183727D01*
X183071Y327295D01*
Y324672D01*
X183727Y324016D01*
X185039D01*
X185695Y324672D01*
X189630Y327952D02*
X187007D01*
Y325984D01*
X188319Y326640D01*
X188974D01*
X189630Y325984D01*
Y324672D01*
X188974Y324016D01*
X187663D01*
X187007Y324672D01*
X205380Y395406D02*
X204724Y396062D01*
X203412D01*
X202756Y395406D01*
Y392782D01*
X203412Y392126D01*
X204724D01*
X205380Y392782D01*
X208660Y392126D02*
Y396062D01*
X206692Y394094D01*
X209315D01*
X204560Y383825D02*
X204035Y384349D01*
X202985D01*
X202461Y383825D01*
Y381726D01*
X202985Y381201D01*
X204035D01*
X204560Y381726D01*
X205609Y383825D02*
X206134Y384349D01*
X207184D01*
X207708Y383825D01*
Y383300D01*
X207184Y382775D01*
X206659D01*
X207184D01*
X207708Y382250D01*
Y381726D01*
X207184Y381201D01*
X206134D01*
X205609Y381726D01*
X315616Y109579D02*
X314960Y110235D01*
X313648D01*
X312992Y109579D01*
Y106955D01*
X313648Y106299D01*
X314960D01*
X315616Y106955D01*
X319552Y106299D02*
X316928D01*
X319552Y108923D01*
Y109579D01*
X318896Y110235D01*
X317584D01*
X316928Y109579D01*
X110891Y23227D02*
X109580D01*
X110236D01*
Y19947D01*
X109580Y19291D01*
X108924D01*
X108268Y19947D01*
X114827Y19291D02*
X112204D01*
X114827Y21915D01*
Y22571D01*
X114171Y23227D01*
X112859D01*
X112204Y22571D01*
X4494Y507085D02*
X3182D01*
X3838D01*
Y503806D01*
X3182Y503150D01*
X2526D01*
X1870Y503806D01*
X7774Y503150D02*
Y507085D01*
X5806Y505118D01*
X8430D01*
X4420Y416989D02*
X3108D01*
X3764D01*
Y413709D01*
X3108Y413054D01*
X2452D01*
X1796Y413709D01*
X8356Y416989D02*
X5732D01*
Y415021D01*
X7044Y415677D01*
X7700D01*
X8356Y415021D01*
Y413709D01*
X7700Y413054D01*
X6388D01*
X5732Y413709D01*
X405380Y125196D02*
X404068D01*
X404724D01*
Y121916D01*
X404068Y121260D01*
X403412D01*
X402756Y121916D01*
X409315Y125196D02*
X408004Y124540D01*
X406692Y123228D01*
Y121916D01*
X407348Y121260D01*
X408660D01*
X409315Y121916D01*
Y122572D01*
X408660Y123228D01*
X406692D01*
X397899Y301967D02*
X396587D01*
X397243D01*
Y298688D01*
X396587Y298031D01*
X395932D01*
X395276Y298688D01*
X399211Y301967D02*
X401835D01*
Y301311D01*
X399211Y298688D01*
Y298031D01*
X331720Y441089D02*
X330408D01*
X331064D01*
Y437810D01*
X330408Y437153D01*
X329752D01*
X329096Y437810D01*
X333032Y440433D02*
X333688Y441089D01*
X335000D01*
X335656Y440433D01*
Y439777D01*
X335000Y439121D01*
X335656Y438465D01*
Y437810D01*
X335000Y437153D01*
X333688D01*
X333032Y437810D01*
Y438465D01*
X333688Y439121D01*
X333032Y439777D01*
Y440433D01*
X333688Y439121D02*
X335000D01*
X331720Y598589D02*
X330408D01*
X331064D01*
Y595309D01*
X330408Y594654D01*
X329752D01*
X329096Y595309D01*
X333032D02*
X333688Y594654D01*
X335000D01*
X335656Y595309D01*
Y597933D01*
X335000Y598589D01*
X333688D01*
X333032Y597933D01*
Y597277D01*
X333688Y596621D01*
X335656D01*
X331720Y519789D02*
X330408D01*
X331064D01*
Y516509D01*
X330408Y515854D01*
X329752D01*
X329096Y516509D01*
X333032Y515854D02*
X334344D01*
X333688D01*
Y519789D01*
X333032Y519133D01*
X336312D02*
X336967Y519789D01*
X338280D01*
X338935Y519133D01*
Y516509D01*
X338280Y515854D01*
X336967D01*
X336312Y516509D01*
Y519133D01*
X17486Y598227D02*
X16174D01*
X16830D01*
Y594947D01*
X16174Y594291D01*
X15518D01*
X14862Y594947D01*
X18798Y594291D02*
X20110D01*
X19454D01*
Y598227D01*
X18798Y597571D01*
X22078Y594291D02*
X23390D01*
X22734D01*
Y598227D01*
X22078Y597571D01*
X395537Y353148D02*
X394225D01*
X394881D01*
Y349869D01*
X394225Y349213D01*
X393569D01*
X392913Y349869D01*
X396849Y349213D02*
X398161D01*
X397505D01*
Y353148D01*
X396849Y352492D01*
X402753Y349213D02*
X400129D01*
X402753Y351836D01*
Y352492D01*
X402097Y353148D01*
X400785D01*
X400129Y352492D01*
X415696Y197589D02*
Y193654D01*
X417664D01*
X418320Y194309D01*
Y196933D01*
X417664Y197589D01*
X415696D01*
X422256D02*
X419632D01*
Y195621D01*
X420944Y196277D01*
X421600D01*
X422256Y195621D01*
Y194309D01*
X421600Y193654D01*
X420288D01*
X419632Y194309D01*
X415296Y239289D02*
Y235353D01*
X417264D01*
X417920Y236010D01*
Y238633D01*
X417264Y239289D01*
X415296D01*
X421856D02*
X420544Y238633D01*
X419232Y237321D01*
Y236010D01*
X419888Y235353D01*
X421200D01*
X421856Y236010D01*
Y236666D01*
X421200Y237321D01*
X419232D01*
X19291Y317715D02*
Y313779D01*
X21259D01*
X21915Y314436D01*
Y317059D01*
X21259Y317715D01*
X19291D01*
X23227Y313779D02*
X24539D01*
X23883D01*
Y317715D01*
X23227Y317059D01*
X29131Y317715D02*
X27819Y317059D01*
X26507Y315747D01*
Y314436D01*
X27163Y313779D01*
X28475D01*
X29131Y314436D01*
Y315091D01*
X28475Y315747D01*
X26507D01*
X342388Y338975D02*
X341076D01*
X341732D01*
Y335695D01*
X341076Y335039D01*
X340420D01*
X339764Y335695D01*
X343700Y335039D02*
Y338975D01*
X345667D01*
X346323Y338319D01*
Y337007D01*
X345667Y336351D01*
X343700D01*
X350259Y338975D02*
X347635D01*
Y337007D01*
X348947Y337663D01*
X349603D01*
X350259Y337007D01*
Y335695D01*
X349603Y335039D01*
X348291D01*
X347635Y335695D01*
X270734Y601967D02*
X269422D01*
X270078D01*
Y598688D01*
X269422Y598032D01*
X268766D01*
X268110Y598688D01*
X272046Y598032D02*
Y601967D01*
X274014D01*
X274670Y601311D01*
Y599999D01*
X274014Y599343D01*
X272046D01*
X278606Y601967D02*
X277294Y601311D01*
X275982Y599999D01*
Y598688D01*
X276638Y598032D01*
X277950D01*
X278606Y598688D01*
Y599343D01*
X277950Y599999D01*
X275982D01*
X270734Y494881D02*
X269422D01*
X270078D01*
Y491601D01*
X269422Y490945D01*
X268766D01*
X268110Y491601D01*
X272046Y490945D02*
Y494881D01*
X274014D01*
X274670Y494225D01*
Y492913D01*
X274014Y492257D01*
X272046D01*
X275982Y494881D02*
X278606D01*
Y494225D01*
X275982Y491601D01*
Y490945D01*
X290000Y524936D02*
Y521000D01*
Y522312D01*
X292624Y524936D01*
X290656Y522968D01*
X292624Y521000D01*
X293936D02*
X295248D01*
X294592D01*
Y524936D01*
X293936Y524280D01*
X126772Y192125D02*
Y188845D01*
X127428Y188189D01*
X128740D01*
X129395Y188845D01*
Y192125D01*
X133331D02*
X132019Y191469D01*
X130707Y190157D01*
Y188845D01*
X131363Y188189D01*
X132675D01*
X133331Y188845D01*
Y189501D01*
X132675Y190157D01*
X130707D01*
X251575Y79134D02*
X247639D01*
Y81102D01*
X248295Y81758D01*
X249607D01*
X250263Y81102D01*
Y79134D01*
Y80446D02*
X251575Y81758D01*
X248295Y83070D02*
X247639Y83726D01*
Y85037D01*
X248295Y85693D01*
X248951D01*
X249607Y85037D01*
Y84382D01*
Y85037D01*
X250263Y85693D01*
X250919D01*
X251575Y85037D01*
Y83726D01*
X250919Y83070D01*
X247639Y89629D02*
X248295Y88317D01*
X249607Y87005D01*
X250919D01*
X251575Y87661D01*
Y88973D01*
X250919Y89629D01*
X250263D01*
X249607Y88973D01*
Y87005D01*
X139370Y79921D02*
X135434D01*
Y81889D01*
X136090Y82545D01*
X137402D01*
X138058Y81889D01*
Y79921D01*
Y81233D02*
X139370Y82545D01*
X136090Y83857D02*
X135434Y84513D01*
Y85825D01*
X136090Y86481D01*
X136746D01*
X137402Y85825D01*
Y85169D01*
Y85825D01*
X138058Y86481D01*
X138714D01*
X139370Y85825D01*
Y84513D01*
X138714Y83857D01*
X136090Y87793D02*
X135434Y88449D01*
Y89761D01*
X136090Y90417D01*
X136746D01*
X137402Y89761D01*
X138058Y90417D01*
X138714D01*
X139370Y89761D01*
Y88449D01*
X138714Y87793D01*
X138058D01*
X137402Y88449D01*
X136746Y87793D01*
X136090D01*
X137402Y88449D02*
Y89761D01*
X124016Y80315D02*
X120080D01*
Y82283D01*
X120736Y82939D01*
X122048D01*
X122704Y82283D01*
Y80315D01*
Y81627D02*
X124016Y82939D01*
X120736Y84251D02*
X120080Y84907D01*
Y86219D01*
X120736Y86875D01*
X121392D01*
X122048Y86219D01*
Y85563D01*
Y86219D01*
X122704Y86875D01*
X123360D01*
X124016Y86219D01*
Y84907D01*
X123360Y84251D01*
Y88186D02*
X124016Y88842D01*
Y90154D01*
X123360Y90810D01*
X120736D01*
X120080Y90154D01*
Y88842D01*
X120736Y88186D01*
X121392D01*
X122048Y88842D01*
Y90810D01*
X136811Y93012D02*
Y96948D01*
X138779D01*
X139435Y96292D01*
Y94980D01*
X138779Y94324D01*
X136811D01*
X138123D02*
X139435Y93012D01*
X142715D02*
Y96948D01*
X140747Y94980D01*
X143371D01*
X144683Y96292D02*
X145338Y96948D01*
X146650D01*
X147306Y96292D01*
Y93668D01*
X146650Y93012D01*
X145338D01*
X144683Y93668D01*
Y96292D01*
X131134Y80315D02*
X127198D01*
Y82283D01*
X127854Y82939D01*
X129166D01*
X129822Y82283D01*
Y80315D01*
Y81627D02*
X131134Y82939D01*
Y86219D02*
X127198D01*
X129166Y84251D01*
Y86875D01*
X131134Y90810D02*
Y88186D01*
X128510Y90810D01*
X127854D01*
X127198Y90154D01*
Y88842D01*
X127854Y88186D01*
X1876Y305511D02*
X564D01*
X1220D01*
Y302231D01*
X564Y301575D01*
X-92D01*
X-748Y302231D01*
X3188Y304855D02*
X3844Y305511D01*
X5156D01*
X5812Y304855D01*
Y304199D01*
X5156Y303543D01*
X4500D01*
X5156D01*
X5812Y302887D01*
Y302231D01*
X5156Y301575D01*
X3844D01*
X3188Y302231D01*
X15748Y310629D02*
Y306693D01*
Y308005D01*
X18372Y310629D01*
X16404Y308661D01*
X18372Y306693D01*
X204823Y399115D02*
X202199D01*
X203511Y397803D02*
Y400427D01*
X152461Y389174D02*
X149837D01*
X151149Y387862D02*
Y390486D01*
X98820Y462992D02*
X102756D01*
X101444D01*
X98820Y465616D01*
X100788Y463648D01*
X102756Y465616D01*
X143307Y327952D02*
Y324016D01*
Y325328D01*
X145931Y327952D01*
X143963Y325984D01*
X145931Y324016D01*
X291732Y408660D02*
Y404724D01*
Y406036D01*
X294356Y408660D01*
X292388Y406692D01*
X294356Y404724D01*
X291732Y394881D02*
Y390945D01*
Y392257D01*
X294356Y394881D01*
X292388Y392913D01*
X294356Y390945D01*
X291732Y436219D02*
Y432283D01*
Y433595D01*
X294356Y436219D01*
X292388Y434251D01*
X294356Y432283D01*
X291732Y422440D02*
Y418504D01*
Y419816D01*
X294356Y422440D01*
X292388Y420472D01*
X294356Y418504D01*
X114567Y525196D02*
Y521260D01*
Y522572D01*
X117191Y525196D01*
X115223Y523228D01*
X117191Y521260D01*
X114961Y555904D02*
Y551968D01*
Y553280D01*
X117585Y555904D01*
X115617Y553936D01*
X117585Y551968D01*
X114567Y540156D02*
Y536221D01*
Y537532D01*
X117191Y540156D01*
X115223Y538188D01*
X117191Y536221D01*
X114567Y568896D02*
Y564961D01*
Y566272D01*
X117191Y568896D01*
X115223Y566928D01*
X117191Y564961D01*
X108158Y300757D02*
X105534D01*
Y298789D01*
X106846Y299445D01*
X107502D01*
X108158Y298789D01*
Y297478D01*
X107502Y296821D01*
X106190D01*
X105534Y297478D01*
X109470Y299445D02*
X112094Y296821D01*
X110782Y298133D01*
X112094Y299445D01*
X109470Y296821D01*
X116029D02*
X113406D01*
X116029Y299445D01*
Y300101D01*
X115373Y300757D01*
X114061D01*
X113406Y300101D01*
X117341D02*
X117997Y300757D01*
X119309D01*
X119965Y300101D01*
Y297478D01*
X119309Y296821D01*
X117997D01*
X117341Y297478D01*
Y300101D01*
X377854Y28543D02*
Y29855D01*
Y29199D01*
X373919D01*
X374575Y28543D01*
X389862D02*
Y29855D01*
Y29199D01*
X385927D01*
X386582Y28543D01*
X393701Y66929D02*
X395013D01*
X394357D01*
Y70865D01*
X393701Y70209D01*
X154331Y251969D02*
X155643D01*
X154987D01*
Y255904D01*
X154331Y255248D01*
X166010Y251575D02*
X163386D01*
X166010Y254199D01*
Y254855D01*
X165354Y255511D01*
X164042D01*
X163386Y254855D01*
X164960Y279528D02*
Y283463D01*
X162992Y281495D01*
X165616D01*
X174704Y271049D02*
X172080D01*
X174704Y273672D01*
Y274328D01*
X174048Y274984D01*
X172736D01*
X172080Y274328D01*
X229190Y261703D02*
X229846Y261047D01*
X231158D01*
X231814Y261703D01*
Y264327D01*
X231158Y264983D01*
X229846D01*
X229190Y264327D01*
Y263671D01*
X229846Y263015D01*
X231814D01*
X229190Y271049D02*
X230502D01*
X229846D01*
Y274984D01*
X229190Y274328D01*
X232470D02*
X233126Y274984D01*
X234438D01*
X235094Y274328D01*
Y271705D01*
X234438Y271049D01*
X233126D01*
X232470Y271705D01*
Y274328D01*
X172080Y261047D02*
X173392D01*
X172736D01*
Y264983D01*
X172080Y264327D01*
X153150Y282807D02*
X153806Y283463D01*
X155117D01*
X155773Y282807D01*
Y282151D01*
X155117Y281495D01*
X154462D01*
X155117D01*
X155773Y280839D01*
Y280184D01*
X155117Y279528D01*
X153806D01*
X153150Y280184D01*
X189765Y342913D02*
X193701D01*
X192389D01*
X189765Y345537D01*
X191733Y343569D01*
X193701Y345537D01*
M02*
