G04 Layer_Color=16711935*
%FSLAX25Y25*%
%MOIN*%
G70*
G01*
G75*
%ADD10C,0.03937*%
%ADD47C,0.00787*%
%ADD54C,0.01000*%
%ADD66C,0.06299*%
%ADD74C,0.07087*%
%ADD80C,0.07874*%
%ADD110R,0.04587X0.03987*%
%ADD111R,0.03987X0.04587*%
%ADD119R,0.06787X0.06787*%
%ADD121R,0.05787X0.05787*%
%ADD122R,0.05787X0.05787*%
%ADD123R,0.06787X0.06787*%
%ADD130R,0.08661X0.03150*%
%ADD132R,0.04724X0.03543*%
%ADD143C,0.20472*%
%ADD144C,0.08661*%
%ADD145R,0.08661X0.08661*%
%ADD146C,0.09055*%
%ADD147C,0.17323*%
%ADD148C,0.10630*%
%ADD149C,0.10236*%
%ADD150C,0.06587*%
%ADD151R,0.06587X0.06587*%
%ADD152R,0.06587X0.06587*%
%ADD153C,0.13386*%
%ADD154C,0.04528*%
%ADD155C,0.04724*%
%ADD156R,0.02441X0.06693*%
%ADD157R,0.08661X0.04787*%
%ADD158R,0.08661X0.05787*%
%ADD159R,0.04803X0.09528*%
%ADD160R,0.03740X0.01772*%
D10*
X174409Y362008D02*
D03*
X168110D02*
D03*
Y367914D02*
D03*
X174409D02*
D03*
D47*
X154134Y594684D02*
Y590748D01*
X152166D01*
X151510Y591404D01*
Y592060D01*
X152166Y592716D01*
X154134D01*
X152166D01*
X151510Y593372D01*
Y594028D01*
X152166Y594684D01*
X154134D01*
X148230D02*
X149542D01*
X150198Y594028D01*
Y591404D01*
X149542Y590748D01*
X148230D01*
X147574Y591404D01*
Y594028D01*
X148230Y594684D01*
X146262D02*
X143639D01*
X144950D01*
Y590748D01*
D54*
X0Y250000D02*
X17717D01*
X0D02*
Y614173D01*
X25591D01*
Y622047D01*
Y629921D01*
X86614Y0D02*
X399606D01*
X86614D02*
Y250000D01*
X17717D02*
X86614D01*
X25591Y629921D02*
X399606D01*
Y614173D02*
Y629921D01*
X425197Y15748D02*
Y614173D01*
X399606D02*
X425197D01*
X399606Y13780D02*
Y15748D01*
X425197D01*
X399606Y0D02*
Y13780D01*
D66*
X403543Y92914D02*
D03*
Y85039D02*
D03*
Y77165D02*
D03*
Y69291D02*
D03*
X411417Y100787D02*
D03*
Y92914D02*
D03*
Y85039D02*
D03*
Y77165D02*
D03*
Y69291D02*
D03*
X403543Y100787D02*
D03*
X411417Y53543D02*
D03*
Y61417D02*
D03*
X403543Y53543D02*
D03*
Y61417D02*
D03*
X152362Y409449D02*
D03*
D74*
X410433Y334646D02*
D03*
X382874D02*
D03*
X410433Y283465D02*
D03*
X382874D02*
D03*
D80*
X413386Y23622D02*
D03*
X11811Y602362D02*
D03*
X413386D02*
D03*
X98425Y23622D02*
D03*
D110*
X187795Y460192D02*
D03*
Y465792D02*
D03*
X207480Y460192D02*
D03*
Y465792D02*
D03*
X46063Y514917D02*
D03*
Y520517D02*
D03*
X70866Y514917D02*
D03*
Y520517D02*
D03*
X58661Y514917D02*
D03*
Y520517D02*
D03*
X83464Y514917D02*
D03*
Y520517D02*
D03*
X351969Y92958D02*
D03*
Y87358D02*
D03*
X359843Y92958D02*
D03*
Y87358D02*
D03*
X367717Y92958D02*
D03*
Y87358D02*
D03*
X139764Y466098D02*
D03*
Y471698D02*
D03*
X46063Y542476D02*
D03*
Y548076D02*
D03*
X70866Y542476D02*
D03*
Y548076D02*
D03*
X58661Y542476D02*
D03*
Y548076D02*
D03*
X83464Y542476D02*
D03*
Y548076D02*
D03*
X381102Y414217D02*
D03*
Y408617D02*
D03*
X356299Y414217D02*
D03*
Y408617D02*
D03*
X368504Y414217D02*
D03*
Y408617D02*
D03*
X343701Y414217D02*
D03*
Y408617D02*
D03*
X205512Y502800D02*
D03*
Y497200D02*
D03*
X174016Y111767D02*
D03*
Y117367D02*
D03*
X204725Y164217D02*
D03*
Y158617D02*
D03*
X204724Y143351D02*
D03*
Y137751D02*
D03*
X160630Y98775D02*
D03*
Y104375D02*
D03*
X174409Y198381D02*
D03*
Y203981D02*
D03*
X196851Y199168D02*
D03*
Y204768D02*
D03*
X167717Y98775D02*
D03*
Y104375D02*
D03*
X177559Y98775D02*
D03*
Y104375D02*
D03*
X188976Y89808D02*
D03*
Y84208D02*
D03*
X183858Y89808D02*
D03*
Y84208D02*
D03*
X178740Y89808D02*
D03*
Y84208D02*
D03*
X176378Y168154D02*
D03*
Y162554D02*
D03*
D111*
X203588Y190157D02*
D03*
X197987D02*
D03*
X220123Y492913D02*
D03*
X214523D02*
D03*
X117672Y448819D02*
D03*
X123272D02*
D03*
X137357Y148425D02*
D03*
X142957D02*
D03*
X175940Y179527D02*
D03*
X181540D02*
D03*
X152406Y198819D02*
D03*
X146806D02*
D03*
X172397Y579921D02*
D03*
X177997D02*
D03*
D119*
X143500Y204724D02*
D03*
X156500D02*
D03*
D121*
X151181Y167192D02*
D03*
Y158792D02*
D03*
D122*
X38320Y294488D02*
D03*
X46720D02*
D03*
D123*
X142913Y156886D02*
D03*
Y169886D02*
D03*
X153937Y107287D02*
D03*
Y94287D02*
D03*
D130*
X156732Y538622D02*
D03*
Y543622D02*
D03*
Y548622D02*
D03*
Y553622D02*
D03*
Y558622D02*
D03*
Y563622D02*
D03*
Y568622D02*
D03*
Y573622D02*
D03*
Y533622D02*
D03*
X191732D02*
D03*
Y538622D02*
D03*
Y543622D02*
D03*
Y548622D02*
D03*
Y553622D02*
D03*
Y558622D02*
D03*
Y563622D02*
D03*
Y568622D02*
D03*
Y573622D02*
D03*
D132*
X169291Y159646D02*
D03*
Y167126D02*
D03*
Y163386D02*
D03*
X159055Y159646D02*
D03*
Y167126D02*
D03*
D143*
X43307Y262598D02*
D03*
X30512Y281496D02*
D03*
X55118D02*
D03*
D144*
X250000Y457008D02*
D03*
Y484252D02*
D03*
X273622Y480630D02*
D03*
Y470630D02*
D03*
X250000Y563307D02*
D03*
Y590551D02*
D03*
X273622Y586929D02*
D03*
Y576929D02*
D03*
X346457Y325276D02*
D03*
Y305276D02*
D03*
Y315276D02*
D03*
X322835Y323898D02*
D03*
Y296654D02*
D03*
D145*
X273622Y460630D02*
D03*
Y566929D02*
D03*
X346457Y295276D02*
D03*
D146*
X33465Y579528D02*
D03*
X58464D02*
D03*
X83464D02*
D03*
Y529528D02*
D03*
X58464D02*
D03*
X33465D02*
D03*
X9646Y539528D02*
D03*
X45945Y534527D02*
D03*
X70945D02*
D03*
Y584527D02*
D03*
X45945D02*
D03*
X20968D02*
D03*
Y534527D02*
D03*
X393701Y457874D02*
D03*
X368701D02*
D03*
X343701D02*
D03*
Y507874D02*
D03*
X368701D02*
D03*
X393701D02*
D03*
X417520Y497874D02*
D03*
X381220Y502874D02*
D03*
X356220D02*
D03*
Y452874D02*
D03*
X381220D02*
D03*
X406197D02*
D03*
Y502874D02*
D03*
X393701Y536614D02*
D03*
X368701D02*
D03*
X343701D02*
D03*
Y586614D02*
D03*
X368701D02*
D03*
X393701D02*
D03*
X417520Y576614D02*
D03*
X381220Y581614D02*
D03*
X356220D02*
D03*
Y531614D02*
D03*
X381220D02*
D03*
X406197D02*
D03*
Y581614D02*
D03*
X393701Y379134D02*
D03*
X368701D02*
D03*
X343701D02*
D03*
Y429134D02*
D03*
X368701D02*
D03*
X393701D02*
D03*
X417520Y419134D02*
D03*
X381220Y424134D02*
D03*
X356220D02*
D03*
Y374134D02*
D03*
X381220D02*
D03*
X406197D02*
D03*
Y424134D02*
D03*
D147*
X31496Y399606D02*
D03*
Y340551D02*
D03*
Y490158D02*
D03*
Y431102D02*
D03*
D148*
X61023Y389764D02*
D03*
Y350394D02*
D03*
X51181Y399606D02*
D03*
Y370079D02*
D03*
Y340551D02*
D03*
X11811Y360236D02*
D03*
Y379921D02*
D03*
X61023Y480315D02*
D03*
Y440945D02*
D03*
X51181Y490158D02*
D03*
Y460630D02*
D03*
Y431102D02*
D03*
X11811Y450788D02*
D03*
Y470472D02*
D03*
D149*
X81495Y308664D02*
D03*
X151573D02*
D03*
Y288979D02*
D03*
X81495D02*
D03*
D150*
X375984Y56457D02*
D03*
Y46457D02*
D03*
X387795Y56457D02*
D03*
Y46457D02*
D03*
X376890Y68504D02*
D03*
X164449Y262717D02*
D03*
X154449Y272717D02*
D03*
X164449D02*
D03*
X181968Y273110D02*
D03*
X191969Y263110D02*
D03*
Y273110D02*
D03*
X201969Y263110D02*
D03*
Y273110D02*
D03*
X211968Y263110D02*
D03*
Y273110D02*
D03*
X221969Y263110D02*
D03*
D151*
X375984Y36457D02*
D03*
X387795D02*
D03*
X154449Y262717D02*
D03*
D152*
X386890Y68504D02*
D03*
X181968Y263110D02*
D03*
X221969Y273110D02*
D03*
D153*
X326772Y45276D02*
D03*
Y238189D02*
D03*
X98425D02*
D03*
Y45276D02*
D03*
D154*
X397244Y592815D02*
D03*
X381496Y561319D02*
D03*
X397244Y529823D02*
D03*
Y466831D02*
D03*
X381496Y435335D02*
D03*
X397244Y403839D02*
D03*
X365748Y592815D02*
D03*
X350000Y561319D02*
D03*
X365748Y529823D02*
D03*
Y403839D02*
D03*
X318504Y561319D02*
D03*
X334252Y529823D02*
D03*
X318504Y498327D02*
D03*
Y372342D02*
D03*
X287008Y561319D02*
D03*
X302756Y529823D02*
D03*
X287008Y498327D02*
D03*
Y435335D02*
D03*
Y372342D02*
D03*
X255512Y498327D02*
D03*
X239764Y466831D02*
D03*
X232087Y145669D02*
D03*
X122441Y391437D02*
D03*
X311024Y87402D02*
D03*
X123228Y320079D02*
D03*
X116929D02*
D03*
X113386Y325591D02*
D03*
X138189Y157087D02*
D03*
X169291Y156299D02*
D03*
X217323Y413779D02*
D03*
X224016Y405118D02*
D03*
X201575Y429528D02*
D03*
X146850Y529528D02*
D03*
Y545275D02*
D03*
Y559055D02*
D03*
X146850Y572835D02*
D03*
X218134Y541173D02*
D03*
X157087Y460630D02*
D03*
X137795Y486614D02*
D03*
X143701Y441732D02*
D03*
X148819Y437402D02*
D03*
X165748Y429921D02*
D03*
Y439370D02*
D03*
X112409Y398031D02*
D03*
X118405Y398031D02*
D03*
X295276Y205906D02*
D03*
X357874Y186221D02*
D03*
X359055Y229528D02*
D03*
X393307Y209842D02*
D03*
X412598Y207874D02*
D03*
X393307Y166929D02*
D03*
X412992Y166142D02*
D03*
X257480Y164961D02*
D03*
X253543Y133071D02*
D03*
X208071Y522047D02*
D03*
X258268Y130709D02*
D03*
X42126Y548032D02*
D03*
X385433Y408661D02*
D03*
X220374Y489075D02*
D03*
X184646Y341339D02*
D03*
X160630Y353543D02*
D03*
X200000Y405512D02*
D03*
X206693Y401181D02*
D03*
X121654Y332283D02*
D03*
X116535Y336614D02*
D03*
Y342520D02*
D03*
X225163Y413416D02*
D03*
X201575Y497244D02*
D03*
Y502756D02*
D03*
X264961Y361811D02*
D03*
X269685Y357480D02*
D03*
X274410Y362205D02*
D03*
X237008Y454331D02*
D03*
X235433Y442126D02*
D03*
X203543Y460236D02*
D03*
Y465748D02*
D03*
X190551Y434252D02*
D03*
X127165Y510236D02*
D03*
X112205Y506298D02*
D03*
X205512Y195276D02*
D03*
X216929Y482282D02*
D03*
X202756Y482283D02*
D03*
X208661Y486221D02*
D03*
X116142Y529528D02*
D03*
Y544882D02*
D03*
Y559055D02*
D03*
Y572835D02*
D03*
X121653Y477559D02*
D03*
X129134Y244882D02*
D03*
X157480Y114961D02*
D03*
X138976Y111417D02*
D03*
X242885Y123622D02*
D03*
X239405Y120142D02*
D03*
X232445D02*
D03*
X235925Y123622D02*
D03*
X156693Y122441D02*
D03*
X153213Y118961D02*
D03*
X122047Y132283D02*
D03*
X138583Y213386D02*
D03*
X119685Y214173D02*
D03*
X125197D02*
D03*
X144488Y264567D02*
D03*
X132283Y272047D02*
D03*
Y266535D02*
D03*
X144488Y194488D02*
D03*
X165354Y182677D02*
D03*
X209055Y158267D02*
D03*
Y135039D02*
D03*
X100394Y148425D02*
D03*
X198425Y90158D02*
D03*
X116142Y113386D02*
D03*
Y118898D02*
D03*
X115748Y146063D02*
D03*
Y151575D02*
D03*
X109055Y170079D02*
D03*
X120866Y166142D02*
D03*
X109055Y157087D02*
D03*
X116929Y175984D02*
D03*
X241339D02*
D03*
X146457Y148425D02*
D03*
X174016Y120866D02*
D03*
X167717Y107874D02*
D03*
X160630D02*
D03*
X174409Y207874D02*
D03*
X154724Y194488D02*
D03*
X174409D02*
D03*
X181889Y183464D02*
D03*
X200787Y204724D02*
D03*
X196752Y195277D02*
D03*
X231496Y170079D02*
D03*
Y181890D02*
D03*
X225197Y113386D02*
D03*
Y118898D02*
D03*
X242520Y153937D02*
D03*
X228346Y175984D02*
D03*
X229134Y153937D02*
D03*
X133464Y148425D02*
D03*
X175984Y183464D02*
D03*
X209055Y164567D02*
D03*
X209055Y146457D02*
D03*
X259842Y70079D02*
D03*
X194488Y84252D02*
D03*
X133071Y66929D02*
D03*
X122441Y65748D02*
D03*
X156299Y84645D02*
D03*
X160630Y93307D02*
D03*
X167717Y93701D02*
D03*
X105905Y148425D02*
D03*
X200641Y522047D02*
D03*
X137008Y141831D02*
D03*
X141634Y136909D02*
D03*
X137008Y132874D02*
D03*
X135433Y126378D02*
D03*
X139764Y118110D02*
D03*
X238976Y389370D02*
D03*
X244882Y182283D02*
D03*
X249213Y189370D02*
D03*
X168110Y80315D02*
D03*
X113386Y20472D02*
D03*
X279528Y226772D02*
D03*
X387402Y259055D02*
D03*
X291732D02*
D03*
Y323228D02*
D03*
X15000Y309000D02*
D03*
D155*
X219685Y424016D02*
D03*
X213386D02*
D03*
X219685Y430315D02*
D03*
X213386D02*
D03*
X167323Y465354D02*
D03*
X161417Y465354D02*
D03*
X167323Y472441D02*
D03*
Y479921D02*
D03*
X167323Y486221D02*
D03*
X167323Y492520D02*
D03*
X161024Y488189D02*
D03*
X227953Y401575D02*
D03*
X287598Y64764D02*
D03*
X257480Y223228D02*
D03*
X224016Y398425D02*
D03*
X297599Y64528D02*
D03*
X150000Y174803D02*
D03*
X135433Y166535D02*
D03*
Y172835D02*
D03*
X387707Y166929D02*
D03*
Y209449D02*
D03*
X87402Y479921D02*
D03*
X98819Y356693D02*
D03*
X418504Y166142D02*
D03*
X341732Y179134D02*
D03*
X418110Y207874D02*
D03*
X42126Y514961D02*
D03*
X185039Y420472D02*
D03*
X207087Y388189D02*
D03*
X219685D02*
D03*
X153543Y385039D02*
D03*
X157480Y392126D02*
D03*
X153543Y399213D02*
D03*
X153150Y324803D02*
D03*
X156693Y330709D02*
D03*
X153150Y336221D02*
D03*
X156299Y342520D02*
D03*
X217717Y444488D02*
D03*
X203150Y447638D02*
D03*
X196850Y443701D02*
D03*
X217599Y64449D02*
D03*
X207598Y64449D02*
D03*
X197638Y64567D02*
D03*
X157874Y64960D02*
D03*
X375984Y98425D02*
D03*
Y114173D02*
D03*
X354331Y137795D02*
D03*
Y157480D02*
D03*
X237795Y25591D02*
D03*
X187599Y64370D02*
D03*
X267717Y64567D02*
D03*
X187795Y25591D02*
D03*
X197638D02*
D03*
X207480D02*
D03*
X217717D02*
D03*
X227559D02*
D03*
X309055Y429134D02*
D03*
X199650Y415005D02*
D03*
X341732Y192913D02*
D03*
X341339Y220866D02*
D03*
X341338Y208268D02*
D03*
X295276Y192520D02*
D03*
X322046Y214172D02*
D03*
X322046Y186613D02*
D03*
X277599Y64527D02*
D03*
X227559Y64567D02*
D03*
X257480D02*
D03*
X247599Y64528D02*
D03*
X237598Y64370D02*
D03*
X87795Y466929D02*
D03*
X302712Y112161D02*
D03*
X308312Y112161D02*
D03*
X347987Y92958D02*
D03*
X323622Y97382D02*
D03*
Y92382D02*
D03*
X333858Y102756D02*
D03*
X339370Y114173D02*
D03*
Y98425D02*
D03*
X397638Y162992D02*
D03*
X398031Y132283D02*
D03*
X339764Y157480D02*
D03*
Y137795D02*
D03*
X181890Y25591D02*
D03*
X147638Y25984D02*
D03*
Y64567D02*
D03*
X247638Y25984D02*
D03*
X167717D02*
D03*
X312205Y55118D02*
D03*
X315354Y38583D02*
D03*
X320472Y33071D02*
D03*
X315748Y27953D02*
D03*
X307480Y64567D02*
D03*
X244882Y230709D02*
D03*
X237921Y500079D02*
D03*
D156*
X193012Y452756D02*
D03*
X195571D02*
D03*
X198130D02*
D03*
X200689D02*
D03*
Y472441D02*
D03*
X198130D02*
D03*
X195571D02*
D03*
X193012D02*
D03*
X212697Y452756D02*
D03*
X215256D02*
D03*
X217815D02*
D03*
X220374D02*
D03*
Y472441D02*
D03*
X217815D02*
D03*
X215256D02*
D03*
X212697D02*
D03*
D157*
X94685Y457441D02*
D03*
Y487441D02*
D03*
X129725Y457441D02*
D03*
Y487441D02*
D03*
D158*
X94685Y467441D02*
D03*
Y477441D02*
D03*
X129725Y467441D02*
D03*
Y477441D02*
D03*
D159*
X307598Y56398D02*
D03*
Y34154D02*
D03*
X297599Y56398D02*
D03*
Y34154D02*
D03*
X287598Y56398D02*
D03*
Y34154D02*
D03*
X277599Y56398D02*
D03*
Y34154D02*
D03*
X267599Y56398D02*
D03*
Y34154D02*
D03*
X257598Y56398D02*
D03*
Y34154D02*
D03*
X247599Y56398D02*
D03*
Y34154D02*
D03*
X237598Y56398D02*
D03*
Y34154D02*
D03*
X227599Y56398D02*
D03*
Y34154D02*
D03*
X217599Y56398D02*
D03*
Y34154D02*
D03*
X207598Y56398D02*
D03*
Y34154D02*
D03*
X197599Y56398D02*
D03*
Y34154D02*
D03*
X187599Y56398D02*
D03*
Y34154D02*
D03*
X177599Y56398D02*
D03*
Y34154D02*
D03*
X167598Y56398D02*
D03*
Y34154D02*
D03*
X157598Y56398D02*
D03*
Y34154D02*
D03*
X147599Y56398D02*
D03*
Y34154D02*
D03*
X137599Y56398D02*
D03*
Y34154D02*
D03*
X127599Y56398D02*
D03*
Y34154D02*
D03*
X117598Y56398D02*
D03*
Y34154D02*
D03*
D160*
X223228Y497244D02*
D03*
Y499213D02*
D03*
Y501181D02*
D03*
Y503150D02*
D03*
X211023D02*
D03*
Y501181D02*
D03*
Y499213D02*
D03*
Y497244D02*
D03*
M02*
